<?xml version="1.0" encoding="UTF-8" standalone="no"?>
<svg
   width="43.996899"
   height="43.997005"
   viewBox="0 0 76.086955 76.087139"
   class="looka-1j8o68f"
   version="1.1"
   id="svg4"
   sodipodi:docname="next-blog-logo.svg"
   inkscape:export-filename="next-blog-logo-icon.png"
   inkscape:export-xdpi="96"
   inkscape:export-ydpi="96"
   xmlns:inkscape="http://www.inkscape.org/namespaces/inkscape"
   xmlns:sodipodi="http://sodipodi.sourceforge.net/DTD/sodipodi-0.dtd"
   xmlns="http://www.w3.org/2000/svg"
   xmlns:svg="http://www.w3.org/2000/svg">
  <sodipodi:namedview
     id="namedview4"
     pagecolor="#505050"
     bordercolor="#eeeeee"
     borderopacity="1"
     inkscape:showpageshadow="0"
     inkscape:pageopacity="0"
     inkscape:pagecheckerboard="0"
     inkscape:deskcolor="#505050" />
  <defs
     id="SvgjsDefs1935" />
  <g
     id="SvgjsG1936"
     featurekey="nRdZyp-0"
     transform="matrix(0.84541063,0,0,0.84929365,-4.2270543,-4.4208111)"
     fill="#364f6b"
     style="display:inline">
    <g
       id="g3">
      <path
         d="M 27.143,94.794 C 14.932,94.794 5,84.862 5,72.652 V 35.498 c 0,-3.549 2.877,-6.427 6.428,-6.427 3.551,0 6.428,2.878 6.428,6.427 v 37.155 c 0,5.121 4.166,9.287 9.287,9.287 5.121,0 9.287,-4.166 9.287,-9.287 -0.003,-3.505 -1.942,-6.674 -5.068,-8.279 -3.158,-1.62 -4.406,-5.493 -2.786,-8.655 1.62,-3.16 5.496,-4.405 8.654,-2.788 7.433,3.814 12.056,11.37 12.056,19.72 -0.001,12.211 -9.932,22.143 -22.143,22.143 z"
         id="path1" />
      <path
         d="m 65.715,79.083 c -3.551,0 -6.431,-2.88 -6.431,-6.431 0,-15.46 -11.01,-28.752 -26.177,-31.594 -3.492,-0.654 -5.789,-4.014 -5.139,-7.5 0.656,-3.492 4.02,-5.791 7.506,-5.136 21.246,3.981 36.668,22.584 36.668,44.23 0.001,3.551 -2.879,6.431 -6.427,6.431 z"
         id="path2" />
      <path
         d="m 88.572,79.083 c -3.551,0 -6.431,-2.88 -6.431,-6.431 C 82.141,44.714 61.249,21.228 33.546,18.02 30.019,17.611 27.493,14.421 27.898,10.894 28.308,7.368 31.481,4.847 35.026,5.247 69.216,9.207 95,38.185 95,72.652 c 0,3.551 -2.877,6.431 -6.428,6.431 z"
         id="path3" />
    </g>
  </g>
</svg>
