<?xml version="1.0" encoding="utf-8"?>
<!-- Generator: Adobe Illustrator 19.1.0, SVG Export Plug-In . SVG Version: 6.00 Build 0)  -->
<svg version="1.1" id="Design" xmlns="http://www.w3.org/2000/svg" xmlns:xlink="http://www.w3.org/1999/xlink" x="0px" y="0px"
	 viewBox="120 -320 1200 1200" style="enable-background:new 120 -320 1200 1200;" xml:space="preserve">
<style type="text/css">
	.st0{fill:#737373;}
	.st1{fill:#2E2E2E;}
</style>
<g>
	<g>
		<path class="st0" d="M511.8-22.1h-94.3L166.3,229.1v94.3l19.5-19.5L417.5,72.2L511.8-22.1z M307.7,276.2l-52.1,51.4l157,157
			l52.1-51.4L307.7,276.2z M763,323.4l-94.3-94.3v0.7l-157-157l-0.3-0.3l-47.1,47.1l157,157l47.1,47.1L511.8,480.3l-94.3,94.3h94.3
			l204.1-204.1L920,574.6h94.3l-19.5-19.5L763,323.4z M1265.5,229.1L1014.2-22.1H920l14.3,20.5l225.6,233.4l105.5,91.6v-93.5
			l0.8-0.8H1265.5z M1128.2,280.4l-157,157l46.7,46.7v0.8l157.7-157.8h-0.8L1128.2,280.4z M967.2,119.2L920,72.1L757.4,234.7
			l47.1,47.1L967.2,119.2z"/>
	</g>
	<g>
		<path class="st1" d="M1264.9,323.8l-94.3-94.3L938.9-2.2l-19.5-19.5L714.9,182.7L511.2-21.1v-0.7l-94.3,94.3L185.2,304.3
			l-19.5,19.5L416.9,575l94.3-94.3l156.6-156.6L620.7,277L464,433.6l-47.1,47.1l-157-157l47.1-47.1L463.7,120l47.1-47.1l0.3,0.3
			l157,157v-0.7l94.3,94.3l231.7,231.7l19.5,19.5h0.8l251.2-251.3L1264.9,323.8z M1013.6,481.5v-0.8L966.9,434L809.5,276.6
			l-47.1-47.1l157-157l47.1,47.1L1123.8,277l46.7,46.7h0.8L1013.6,481.5z"/>
	</g>
</g>
</svg>
