<svg width="549.9067443847657" height="110.73002217470932" viewBox="0 0 369.5483870967742 74.41280092615554" class="looka-1j8o68f"><defs id="SvgjsDefs1011"></defs><g id="SvgjsG1012" featurekey="hmhgWD-0" transform="matrix(0.6272331779399705,0,0,0.6272331779399705,-3.1355387019833016,21.667475557174853)" fill="#3e588f"><polygon xmlns="http://www.w3.org/2000/svg" points="73.961,73.961 68.117,73.961 28.961,34.804 13.766,50 28.961,65.195 40.553,53.604 46.396,59.447 31.883,73.961   26.039,73.961 4.999,52.922 4.999,47.078 26.039,26.039 31.883,26.039 71.039,65.195 86.234,50 71.039,34.804 59.447,46.398   53.603,40.553 68.117,26.039 73.961,26.039 95,47.079 95,52.922 "></polygon></g><g id="SvgjsG1013" featurekey="1RRcwp-0" transform="matrix(2.2544572490463484,0,0,2.2544572490463484,73.4299179620807,18.953158189662105)" fill="#111111"><path d="M8.94 7.76 l3 0 l0 12.24 l-3 0 l-4.8 -7.16 l0 7.16 l-3 0 l0 -12.24 l3 0 l4.8 7.16 l0 -7.16 z M18.394 13.8 c0.3 0.1 0.64 0.18 1 0.22 c0.36 0.06 0.7 0.08 1.02 0.08 c0.4 0 1.42 -0.08 1.42 -0.66 c0 -0.62 -0.88 -0.64 -1.32 -0.64 c-0.88 0 -1.64 0.2 -2.12 1 z M24.054 16.88 l0 2.8 c-1.12 0.26 -2.24 0.44 -3.4 0.44 c-3.18 0 -5.54 -1.86 -5.54 -5.08 c0 -3.18 2.28 -5.14 5.3 -5.14 c2.06 0 4.44 0.98 4.44 3.32 c0 2.32 -2.52 3.18 -4.46 3.18 c-0.74 0 -1.48 -0.2 -2.16 -0.48 c0.4 1.12 1.6 1.3 2.64 1.3 c0.54 0 1.08 -0.02 1.62 -0.1 c0.5 -0.04 1.08 -0.1 1.56 -0.24 z M32.467999999999996 17.12 l-2.1 2.88 l-3.3 0 l3.76 -5.14 l-3.56 -4.86 l3.3 0 l1.9 2.6 l1.9 -2.6 l3.3 0 l-3.54 4.86 l3.74 5.14 l-3.3 0 z M46.242 10.34 l0 2.78 l-2.8 0 l0 1.88 c0 1.54 1.02 2.32 2.5 2.32 c0.18 0 0.34 -0.02 0.48 -0.04 s0.26 -0.04 0.4 -0.06 l0 2.78 c-0.18 0.02 -0.32 0.06 -0.42 0.08 c-0.12 0.02 -0.32 0.02 -0.58 0.02 c-3.02 0 -5.38 -2.06 -5.38 -5.1 l0 -7.4 l3 0 l0 2.74 l2.8 0 z M56.06999999999999 7.76 l3 0 l0 12.24 l-3 0 l0 -12.24 z M72.984 15 l0 5 l-3 0 l0 -5 c0 -1.38 -0.64 -2.32 -2.1 -2.32 c-1.44 0 -2.1 0.96 -2.1 2.32 l0 5 l-3 0 l0 -5 c0 -3.08 2.12 -5.1 5.1 -5.1 c3.1 0 5.1 2.12 5.1 5.1 z M81.878 10.34 l0 2.78 l-2.46 0 l0 6.88 l-3 0 l0 -9.98 c0 -3.32 2.44 -5.12 5.52 -5.12 c0.1 0 0.24 0 0.38 0.02 s0.3 0.06 0.44 0.08 l0 2.9 c-0.1 -0.02 -0.22 -0.04 -0.36 -0.06 s-0.26 -0.04 -0.36 -0.04 c-0.5 0 -0.9 0.06 -1.24 0.16 c-0.56 0.2 -1.06 0.58 -1.24 1.18 c-0.1 0.26 -0.14 0.56 -0.14 0.86 l0 0.34 l2.46 0 z M85.552 10 l3 0 l0 10 l-3 0 l0 -10 z M87.052 9.06 c-1.02 0 -1.74 -0.72 -1.74 -1.74 c0 -1.04 0.72 -1.72 1.74 -1.72 c1.04 0 1.72 0.68 1.72 1.72 c0 1.06 -0.66 1.74 -1.72 1.74 z M102.446 15 l0 5 l-3 0 l0 -5 c0 -1.38 -0.64 -2.32 -2.1 -2.32 c-1.44 0 -2.1 0.96 -2.1 2.32 l0 5 l-3 0 l0 -5 c0 -3.08 2.12 -5.1 5.1 -5.1 c3.1 0 5.1 2.12 5.1 5.1 z M105.78 10 l3 0 l0 10 l-3 0 l0 -10 z M107.28 9.06 c-1.02 0 -1.74 -0.72 -1.74 -1.74 c0 -1.04 0.72 -1.72 1.74 -1.72 c1.04 0 1.72 0.68 1.72 1.72 c0 1.06 -0.66 1.74 -1.72 1.74 z M118.11399999999999 10.34 l0 2.78 l-2.8 0 l0 1.88 c0 1.54 1.02 2.32 2.5 2.32 c0.18 0 0.34 -0.02 0.48 -0.04 s0.26 -0.04 0.4 -0.06 l0 2.78 c-0.18 0.02 -0.32 0.06 -0.42 0.08 c-0.12 0.02 -0.32 0.02 -0.58 0.02 c-3.02 0 -5.38 -2.06 -5.38 -5.1 l0 -7.4 l3 0 l0 2.74 l2.8 0 z M128.34799999999998 15 l0 -5 l3 0 l0 9.48 c0 3.18 -2.28 5.12 -5.3 5.12 c-1.06 0 -2.12 -0.1 -3.14 -0.44 l0 -3.08 c0.86 0.46 2.02 0.62 2.98 0.62 c1.08 0 1.94 -0.32 2.34 -1.36 c0.08 -0.28 0.12 -0.58 0.12 -0.88 l0 -0.46 c-0.68 0.76 -1.56 1.1 -2.56 1.1 c-2.84 0 -4.64 -2.44 -4.64 -5.1 l0 -5 l3 0 l0 5 c0 1.36 0.54 2.32 2 2.32 c1.42 0 2.2 -0.94 2.2 -2.32 z"></path></g></svg>