<?xml version="1.0" encoding="UTF-8" standalone="no"?>
<svg
   width="134.54713"
   height="18.048941"
   viewBox="0 0 268.36464 36.000005"
   class="looka-1j8o68f"
   version="1.1"
   id="svg5"
   sodipodi:docname="next-stores-logo.svg"
   inkscape:export-xdpi="96"
   inkscape:export-ydpi="96"
   inkscape:version="1.3 (0e150ed6c4, 2023-07-21)"
   xmlns:inkscape="http://www.inkscape.org/namespaces/inkscape"
   xmlns:sodipodi="http://sodipodi.sourceforge.net/DTD/sodipodi-0.dtd"
   xmlns:xlink="http://www.w3.org/1999/xlink"
   xmlns="http://www.w3.org/2000/svg"
   xmlns:svg="http://www.w3.org/2000/svg">
  <sodipodi:namedview
     id="namedview5"
     pagecolor="#505050"
     bordercolor="#eeeeee"
     borderopacity="1"
     inkscape:showpageshadow="0"
     inkscape:pageopacity="0"
     inkscape:pagecheckerboard="0"
     inkscape:deskcolor="#505050"
     inkscape:zoom="3.6859692"
     inkscape:cx="37.71057"
     inkscape:cy="9.0885188"
     inkscape:window-width="1366"
     inkscape:window-height="697"
     inkscape:window-x="-8"
     inkscape:window-y="-8"
     inkscape:window-maximized="1"
     inkscape:current-layer="svg5" />
  <defs
     id="SvgjsDefs9295">
    <linearGradient
       id="SvgjsLinearGradient9304">
      <stop
         id="SvgjsStop9305"
         stop-color="#905e26"
         offset="0" />
      <stop
         id="SvgjsStop9306"
         stop-color="#f5ec9b"
         offset="0.5" />
      <stop
         id="SvgjsStop9307"
         stop-color="#905e26"
         offset="1" />
    </linearGradient>
    <linearGradient
       id="SvgjsLinearGradient9308">
      <stop
         id="SvgjsStop9309"
         stop-color="#905e26"
         offset="0" />
      <stop
         id="SvgjsStop9310"
         stop-color="#f5ec9b"
         offset="0.5" />
      <stop
         id="SvgjsStop9311"
         stop-color="#905e26"
         offset="1" />
    </linearGradient>
    <linearGradient
       id="SvgjsLinearGradient9312">
      <stop
         id="SvgjsStop9313"
         stop-color="#905e26"
         offset="0" />
      <stop
         id="SvgjsStop9314"
         stop-color="#f5ec9b"
         offset="0.5" />
      <stop
         id="SvgjsStop9315"
         stop-color="#905e26"
         offset="1" />
    </linearGradient>
    <linearGradient
       id="SvgjsLinearGradient9316">
      <stop
         id="SvgjsStop9317"
         stop-color="#905e26"
         offset="0" />
      <stop
         id="SvgjsStop9318"
         stop-color="#f5ec9b"
         offset="0.5" />
      <stop
         id="SvgjsStop9319"
         stop-color="#905e26"
         offset="1" />
    </linearGradient>
    <linearGradient
       inkscape:collect="always"
       xlink:href="#SvgjsLinearGradient9304"
       id="linearGradient5"
       gradientTransform="scale(0.999996)"
       x1="0.001000004"
       y1="0"
       x2="250.07401"
       y2="0"
       gradientUnits="userSpaceOnUse" />
    <linearGradient
       inkscape:collect="always"
       xlink:href="#SvgjsLinearGradient9304"
       id="linearGradient6"
       gradientTransform="scale(0.999996)"
       x1="0.001000004"
       y1="0"
       x2="250.07401"
       y2="0"
       gradientUnits="userSpaceOnUse" />
    <linearGradient
       inkscape:collect="always"
       xlink:href="#SvgjsLinearGradient9308"
       id="linearGradient7"
       gradientTransform="scale(1.0001353,0.99986474)"
       x1="5.2092953"
       y1="4.3705912"
       x2="96.035568"
       y2="4.3705912"
       gradientUnits="userSpaceOnUse" />
    <linearGradient
       inkscape:collect="always"
       xlink:href="#SvgjsLinearGradient9308"
       id="linearGradient8"
       gradientTransform="scale(1.0129594,0.98720636)"
       x1="4.7873302"
       y1="7.3624148"
       x2="93.870171"
       y2="7.3624148"
       gradientUnits="userSpaceOnUse" />
    <linearGradient
       inkscape:collect="always"
       xlink:href="#SvgjsLinearGradient9308"
       id="linearGradient9"
       gradientTransform="scale(1.0019675,0.99803634)"
       x1="4.839849"
       y1="4.3785982"
       x2="95.859955"
       y2="4.3785982"
       gradientUnits="userSpaceOnUse" />
    <linearGradient
       inkscape:collect="always"
       xlink:href="#SvgjsLinearGradient9308"
       id="linearGradient10"
       gradientTransform="scale(1.0019675,0.99803634)"
       x1="4.839849"
       y1="4.3785982"
       x2="95.859955"
       y2="4.3785982"
       gradientUnits="userSpaceOnUse" />
    <linearGradient
       inkscape:collect="always"
       xlink:href="#SvgjsLinearGradient9312"
       id="linearGradient11"
       gradientTransform="scale(1.7242534,0.57996117)"
       x1="0.9975332"
       y1="10.586916"
       x2="25.309505"
       y2="10.586916"
       gradientUnits="userSpaceOnUse" />
    <linearGradient
       inkscape:collect="always"
       xlink:href="#SvgjsLinearGradient9312"
       id="linearGradient12"
       gradientTransform="scale(1.7242534,0.57996117)"
       x1="0.9975332"
       y1="10.586916"
       x2="25.309505"
       y2="10.586916"
       gradientUnits="userSpaceOnUse" />
    <linearGradient
       inkscape:collect="always"
       xlink:href="#SvgjsLinearGradient9316"
       id="linearGradient13"
       gradientTransform="scale(1.9816144,0.50463905)"
       x1="2.6644943"
       y1="11.532996"
       x2="31.358271"
       y2="11.532996"
       gradientUnits="userSpaceOnUse" />
    <linearGradient
       inkscape:collect="always"
       xlink:href="#SvgjsLinearGradient9316"
       id="linearGradient14"
       gradientTransform="scale(1.9816144,0.50463905)"
       x1="2.6644943"
       y1="11.532996"
       x2="31.358271"
       y2="11.532996"
       gradientUnits="userSpaceOnUse" />
  </defs>
  <g
     id="SvgjsG9296"
     featurekey="symbolGroupContainer"
     transform="matrix(0.39363665,0,0,0.39363665,-118.00039,-30.999997)"
     fill="url(#SvgjsLinearGradient9304)"
     style="display:inline;fill:url(#linearGradient6)">
    <path
       d="m 125.64,7.519 c 0.819,-0.613 1.999,-2.357 4.883,-5.242 -2.885,2.885 -4.629,4.064 -5.242,4.883 0.145,-1.013 -0.254,-3.08 -0.254,-7.16 0,4.08 -0.399,6.147 -0.253,7.16 -0.614,-0.819 -2.358,-1.999 -5.242,-4.883 2.885,2.885 4.064,4.628 4.884,5.242 -1.013,-0.145 -3.08,0.254 -7.16,0.253 4.08,0 6.147,0.399 7.16,0.254 -0.819,0.613 -1.999,2.357 -4.884,5.242 2.885,-2.885 4.629,-4.064 5.242,-4.883 -0.145,1.013 0.254,3.08 0.254,7.16 0,-4.08 0.399,-6.147 0.254,-7.16 0.613,0.819 2.357,1.999 5.242,4.883 -2.885,-2.885 -4.064,-4.628 -4.883,-5.242 1.013,0.146 3.08,-0.254 7.16,-0.253 -4.081,-10e-4 -6.148,-0.4 -7.161,-0.254 z m -15.776,-2.31 -1.48,2.563 1.48,2.563 h 2.96 l 1.48,-2.563 -1.48,-2.563 z m 27.385,0 -1.48,2.563 1.48,2.563 h 2.96 l 1.48,-2.563 -1.48,-2.563 z M 132.8,242.301 c -4.08,0 -6.147,-0.399 -7.16,-0.254 0.819,-0.613 1.999,-2.357 4.883,-5.242 -2.885,2.885 -4.629,4.064 -5.242,4.883 0.145,-1.013 -0.254,-3.08 -0.254,-7.16 0,4.08 -0.399,6.147 -0.253,7.16 -0.614,-0.819 -2.358,-1.999 -5.242,-4.883 2.885,2.885 4.065,4.629 4.884,5.242 -1.013,-0.145 -3.08,0.254 -7.16,0.254 4.08,0 6.147,0.399 7.16,0.254 -0.819,0.614 -1.999,2.357 -4.884,5.242 2.885,-2.885 4.629,-4.064 5.242,-4.883 -0.145,1.013 0.254,3.08 0.254,7.16 0,-4.08 0.399,-6.147 0.254,-7.16 0.613,0.819 2.357,1.999 5.242,4.883 -2.885,-2.885 -4.064,-4.628 -4.883,-5.242 1.012,0.145 3.079,-0.254 7.159,-0.254 z m -22.936,-2.564 -1.48,2.564 1.48,2.563 h 2.96 l 1.48,-2.563 -1.48,-2.564 z m 27.385,0 -1.48,2.564 1.48,2.563 h 2.96 l 1.48,-2.563 -1.48,-2.564 z M 242.913,125.282 c 1.013,0.145 3.08,-0.254 7.16,-0.254 -4.08,0 -6.147,-0.399 -7.16,-0.253 0.819,-0.614 1.999,-2.358 4.883,-5.242 -2.885,2.885 -4.629,4.064 -5.242,4.884 0.145,-1.013 -0.254,-3.08 -0.254,-7.16 0,4.08 -0.399,6.147 -0.254,7.16 -0.614,-0.819 -2.357,-1.999 -5.242,-4.883 2.885,2.885 4.064,4.629 4.883,5.242 -1.013,-0.145 -3.08,0.254 -7.16,0.254 4.08,0 6.147,0.399 7.16,0.253 -0.819,0.614 -1.998,2.357 -4.883,5.242 2.885,-2.885 4.628,-4.064 5.242,-4.883 -0.145,1.013 0.254,3.08 0.253,7.16 0,-4.08 0.399,-6.147 0.254,-7.16 0.613,0.819 2.357,1.999 5.242,4.883 -2.883,-2.886 -4.063,-4.63 -4.882,-5.243 z m -3.176,-12.458 2.564,1.48 2.563,-1.48 v -2.96 l -2.563,-1.48 -2.564,1.48 z m 0,24.425 v 2.96 l 2.564,1.48 2.563,-1.48 v -2.96 l -2.563,-1.48 z M 2.277,130.524 c 2.884,-2.885 4.628,-4.064 5.242,-4.883 -0.145,1.013 0.254,3.08 0.254,7.16 0,-4.08 0.399,-6.147 0.254,-7.16 0.613,0.819 2.357,1.999 5.242,4.884 -2.885,-2.885 -4.064,-4.629 -4.883,-5.242 1.013,0.145 3.08,-0.254 7.16,-0.254 -4.079,0 -6.147,-0.399 -7.16,-0.253 0.819,-0.614 1.998,-2.358 4.883,-5.242 -2.885,2.885 -4.629,4.065 -5.242,4.884 0.146,-1.013 -0.253,-3.08 -0.253,-7.16 0,4.079 -0.399,6.147 -0.254,7.16 -0.613,-0.819 -2.357,-1.999 -5.242,-4.883 2.885,2.885 4.064,4.629 4.883,5.242 -1.013,-0.145 -3.08,0.254 -7.16,0.254 4.08,0 6.147,0.399 7.16,0.253 -0.82,0.611 -2,2.355 -4.884,5.24 z m 5.495,-5.496 z m 0,0 z m 0,0 z m 2.564,-12.204 v -2.96 l -2.564,-1.48 -2.563,1.48 v 2.96 l 2.563,1.48 z m 0,24.425 -2.564,-1.48 -2.563,1.48 v 2.96 l 2.563,1.48 2.564,-1.48 z m 197,-95.391 c -1.013,-0.145 -3.08,0.254 -7.16,0.254 4.08,0 6.147,0.399 7.16,0.254 -0.819,0.613 -1.999,2.357 -4.884,5.242 2.885,-2.885 4.629,-4.065 5.242,-4.883 -0.145,1.013 0.254,3.08 0.254,7.16 0,-4.08 0.399,-6.147 0.253,-7.16 0.613,0.819 2.357,1.999 5.242,4.883 -2.885,-2.885 -4.064,-4.629 -4.883,-5.242 1.013,0.146 3.08,-0.254 7.16,-0.253 -4.079,0 -6.147,-0.399 -7.16,-0.254 0.819,-0.613 1.999,-2.358 4.883,-5.242 -2.885,2.885 -4.629,4.064 -5.242,4.884 0.145,-1.013 -0.254,-3.08 -0.254,-7.16 0,4.08 -0.399,6.147 -0.253,7.16 -0.614,-0.819 -2.357,-1.999 -5.242,-4.884 2.885,2.884 4.065,4.628 4.884,5.241 z m 0.613,0.254 z m 0,0 z m 0,0 z m -7.584,-7.583 0.766,-2.859 -2.092,-2.093 -2.859,0.766 -0.766,2.859 2.093,2.093 z m 14.413,18.037 2.093,2.093 2.859,-0.766 0.766,-2.859 -2.093,-2.093 -2.859,0.767 z M 42.725,208.202 c 1.013,0.145 3.08,-0.254 7.16,-0.253 -4.08,0 -6.147,-0.399 -7.16,-0.254 0.819,-0.613 1.999,-2.357 4.883,-5.242 -2.885,2.885 -4.629,4.065 -5.242,4.884 0.145,-1.013 -0.254,-3.08 -0.254,-7.16 0,4.08 -0.399,6.147 -0.254,7.16 -0.613,-0.819 -2.357,-1.999 -5.242,-4.884 2.885,2.885 4.064,4.629 4.883,5.242 -1.013,-0.145 -3.08,0.254 -7.16,0.254 4.08,0 6.147,0.399 7.16,0.254 -0.819,0.613 -1.999,2.357 -4.883,5.242 2.885,-2.885 4.629,-4.064 5.242,-4.884 -0.145,1.013 0.254,3.08 0.254,7.16 0,-4.08 0.399,-6.147 0.254,-7.16 0.613,0.819 2.357,1.999 5.242,4.884 -2.885,-2.885 -4.064,-4.629 -4.883,-5.243 z m -7.43,-10.695 -2.093,-2.093 -2.859,0.766 -0.766,2.859 2.093,2.093 2.859,-0.766 z m 14.412,18.037 -0.766,2.859 2.093,2.093 2.859,-0.766 0.766,-2.859 -2.093,-2.093 z m 166.026,-7.595 c -4.08,0 -6.147,-0.399 -7.16,-0.254 0.819,-0.613 1.999,-2.357 4.884,-5.242 -2.885,2.885 -4.629,4.064 -5.242,4.883 0.145,-1.013 -0.254,-3.08 -0.253,-7.16 0,4.08 -0.399,6.147 -0.254,7.16 -0.613,-0.819 -2.357,-1.998 -5.242,-4.883 2.885,2.885 4.064,4.629 4.883,5.242 -1.013,-0.145 -3.08,0.254 -7.16,0.254 4.08,0 6.147,0.399 7.16,0.253 -0.819,0.613 -1.999,2.357 -4.883,5.242 2.885,-2.885 4.629,-4.064 5.242,-4.883 -0.145,1.013 0.254,3.08 0.254,7.16 0,-4.079 0.399,-6.147 0.254,-7.16 0.614,0.819 2.358,1.999 5.242,4.883 -2.885,-2.885 -4.065,-4.629 -4.884,-5.242 1.012,0.146 3.079,-0.253 7.159,-0.253 z m -7.772,0 z m 0,0 z m 0,0 z m 8.91,-12.535 -2.093,2.093 0.766,2.858 2.859,0.767 2.093,-2.093 -0.766,-2.859 z m -19.364,19.364 -2.093,2.093 0.766,2.859 2.859,0.766 2.093,-2.093 -0.767,-2.859 z M 34.352,42.112 c 4.08,0 6.147,0.399 7.16,0.254 -0.819,0.613 -1.999,2.357 -4.883,5.242 2.885,-2.885 4.629,-4.064 5.242,-4.883 -0.145,1.013 0.254,3.08 0.254,7.16 0,-4.08 0.399,-6.147 0.254,-7.16 0.613,0.819 2.357,1.999 5.242,4.883 -2.885,-2.885 -4.065,-4.629 -4.884,-5.242 1.013,0.145 3.08,-0.254 7.16,-0.254 -4.08,0 -6.147,-0.399 -7.16,-0.253 0.819,-0.613 1.999,-2.357 4.884,-5.242 -2.885,2.885 -4.629,4.064 -5.242,4.883 0.145,-1.013 -0.254,-3.08 -0.253,-7.16 0,4.08 -0.399,6.147 -0.254,7.16 -0.613,-0.819 -2.357,-1.999 -5.242,-4.883 2.885,2.885 4.064,4.629 4.883,5.242 -1.014,-0.146 -3.081,0.253 -7.161,0.253 z m 16.682,-12.535 -2.093,2.093 0.766,2.859 2.859,0.766 2.093,-2.093 -0.766,-2.859 z m -17.832,25.082 2.093,-2.093 -0.766,-2.859 -2.859,-0.766 -2.093,2.093 0.766,2.859 z m 136.23,-37.496 c -0.522,0.88 -0.944,2.943 -2.505,6.712 1.561,-3.769 2.721,-5.527 2.974,-6.518 0.253,0.991 1.413,2.748 2.975,6.518 -1.561,-3.769 -1.984,-5.831 -2.506,-6.712 0.88,0.522 2.943,0.944 6.712,2.505 -3.769,-1.561 -5.526,-2.721 -6.518,-2.974 0.992,-0.253 2.749,-1.413 6.518,-2.974 -3.769,1.561 -5.832,1.984 -6.712,2.506 0.522,-0.88 0.944,-2.943 2.505,-6.712 -1.561,3.769 -2.721,5.526 -2.974,6.518 -0.253,-0.992 -1.413,-2.749 -2.975,-6.518 1.561,3.769 1.984,5.832 2.506,6.712 -0.88,-0.522 -2.943,-0.945 -6.712,-2.506 3.769,1.561 5.526,2.721 6.518,2.974 -0.992,0.253 -2.749,1.413 -6.518,2.974 3.77,-1.561 5.832,-1.983 6.712,-2.505 z m -11.787,-2.771 2.348,-1.802 -0.386,-2.934 -2.735,-1.133 -2.348,1.802 0.386,2.935 z m 25.301,10.48 2.348,-1.802 -0.386,-2.935 -2.735,-1.132 -2.348,1.802 0.386,2.934 z M 80.625,232.903 c 0.522,-0.88 0.944,-2.943 2.505,-6.712 -1.561,3.769 -2.721,5.526 -2.974,6.518 -0.253,-0.991 -1.413,-2.749 -2.975,-6.518 1.561,3.769 1.984,5.832 2.506,6.712 -0.88,-0.522 -2.943,-0.944 -6.712,-2.506 3.769,1.561 5.526,2.721 6.518,2.974 -0.992,0.253 -2.749,1.413 -6.518,2.974 3.769,-1.561 5.832,-1.984 6.712,-2.506 -0.522,0.88 -0.944,2.943 -2.505,6.712 1.561,-3.769 2.721,-5.527 2.974,-6.518 0.253,0.992 1.413,2.749 2.975,6.518 -1.561,-3.769 -1.984,-5.831 -2.506,-6.712 0.88,0.522 2.943,0.944 6.712,2.506 -3.769,-1.561 -5.526,-2.721 -6.518,-2.974 0.991,-0.253 2.748,-1.413 6.518,-2.974 -3.769,1.562 -5.832,1.985 -6.712,2.506 z m -0.469,0.469 z m 0,0 z m 0,0 z m 0,0 z m -13.029,-8.171 -2.348,1.802 0.386,2.935 2.735,1.132 2.348,-1.802 -0.386,-2.934 z m 25.301,10.48 -2.348,1.802 0.386,2.934 2.735,1.132 2.348,-1.801 -0.387,-2.935 z m 141.614,-65.78 c 0.991,-0.253 2.749,-1.413 6.518,-2.975 -3.769,1.561 -5.831,1.984 -6.712,2.506 0.522,-0.88 0.945,-2.943 2.506,-6.712 -1.561,3.769 -2.721,5.526 -2.974,6.518 -0.253,-0.991 -1.413,-2.749 -2.974,-6.518 1.561,3.769 1.984,5.832 2.505,6.712 -0.88,-0.522 -2.943,-0.944 -6.712,-2.505 3.769,1.561 5.526,2.721 6.518,2.974 -0.992,0.253 -2.748,1.413 -6.518,2.975 3.769,-1.561 5.832,-1.984 6.712,-2.506 -0.522,0.88 -0.944,2.943 -2.506,6.712 1.561,-3.769 2.721,-5.526 2.974,-6.518 0.253,0.991 1.413,2.749 2.974,6.518 -1.561,-3.769 -1.984,-5.832 -2.506,-6.712 0.88,0.522 2.943,0.944 6.712,2.505 -3.769,-1.561 -5.526,-2.721 -6.517,-2.974 z m 2.771,-14.991 -1.132,2.735 1.801,2.348 2.935,-0.386 1.133,-2.735 -1.802,-2.348 z m -10.479,25.301 -1.133,2.735 1.802,2.348 2.935,-0.386 1.132,-2.735 -1.802,-2.348 z M 16.038,80.156 c -0.991,0.253 -2.749,1.413 -6.517,2.975 3.769,-1.561 5.832,-1.984 6.712,-2.506 -0.522,0.88 -0.944,2.943 -2.506,6.712 1.561,-3.769 2.721,-5.526 2.974,-6.518 0.253,0.991 1.413,2.748 2.974,6.518 -1.561,-3.769 -1.984,-5.832 -2.506,-6.712 0.88,0.522 2.943,0.944 6.712,2.505 -3.769,-1.561 -5.527,-2.721 -6.518,-2.974 0.991,-0.253 2.749,-1.413 6.518,-2.975 -3.769,1.561 -5.832,1.984 -6.712,2.506 0.522,-0.88 0.944,-2.943 2.506,-6.712 -1.561,3.769 -2.721,5.526 -2.974,6.518 -0.253,-0.991 -1.413,-2.749 -2.974,-6.518 1.561,3.769 1.984,5.832 2.506,6.712 -0.88,-0.522 -2.943,-0.944 -6.712,-2.505 3.768,1.561 5.525,2.721 6.517,2.974 z m 7.701,-10.295 1.133,-2.734 -1.802,-2.348 -2.935,0.386 -1.132,2.735 1.801,2.348 z M 13.26,95.162 14.392,92.428 12.59,90.08 9.656,90.466 8.523,93.201 10.325,95.549 Z M 233.37,79.488 c -0.253,-0.992 -1.413,-2.749 -2.974,-6.518 1.561,3.769 1.984,5.832 2.505,6.712 -0.88,-0.522 -2.943,-0.944 -6.712,-2.506 3.769,1.561 5.526,2.721 6.518,2.974 -0.992,0.253 -2.749,1.413 -6.518,2.975 3.769,-1.561 5.832,-1.984 6.712,-2.506 -0.522,0.88 -0.944,2.943 -2.505,6.712 1.561,-3.769 2.721,-5.526 2.974,-6.518 0.253,0.991 1.413,2.749 2.974,6.518 -1.561,-3.769 -1.984,-5.832 -2.506,-6.712 0.88,0.522 2.943,0.944 6.712,2.506 -3.769,-1.561 -5.526,-2.721 -6.518,-2.974 0.991,-0.253 2.749,-1.413 6.518,-2.975 -3.769,1.561 -5.832,1.984 -6.712,2.506 0.522,-0.88 0.944,-2.943 2.505,-6.712 -1.56,3.769 -2.72,5.527 -2.973,6.518 z m 0,0.663 z m 0,0 z m 0,0 z m 0,0 z m -4.104,-9.908 1.801,-2.348 -1.132,-2.735 -2.935,-0.386 -1.801,2.348 1.132,2.735 z m 8.215,19.832 -1.802,2.348 1.133,2.734 2.934,0.387 1.802,-2.349 -1.133,-2.734 z M 16.696,170.569 c 0.253,0.992 1.413,2.749 2.974,6.518 -1.561,-3.769 -1.984,-5.832 -2.506,-6.712 0.88,0.522 2.943,0.944 6.712,2.506 -3.769,-1.561 -5.526,-2.721 -6.518,-2.974 0.992,-0.253 2.749,-1.413 6.517,-2.975 -3.769,1.561 -5.831,1.984 -6.712,2.506 0.522,-0.88 0.944,-2.943 2.505,-6.712 -1.561,3.769 -2.721,5.527 -2.974,6.518 -0.253,-0.991 -1.413,-2.749 -2.974,-6.518 1.561,3.769 1.983,5.832 2.505,6.712 -0.88,-0.522 -2.943,-0.944 -6.712,-2.506 3.769,1.561 5.527,2.721 6.518,2.974 -0.991,0.253 -2.748,1.413 -6.518,2.975 3.769,-1.561 5.832,-1.984 6.712,-2.506 -0.522,0.88 -0.944,2.943 -2.505,6.712 1.563,-3.769 2.723,-5.527 2.976,-6.518 z m -4.104,-10.571 1.802,-2.348 -1.133,-2.734 -2.934,-0.387 -1.802,2.349 1.133,2.734 z m 8.215,19.832 -1.802,2.348 1.133,2.734 2.934,0.387 1.802,-2.349 -1.133,-2.734 z m 149.778,53.54 c 0.992,-0.253 2.749,-1.413 6.518,-2.974 -3.769,1.561 -5.832,1.984 -6.712,2.505 0.522,-0.88 0.944,-2.943 2.506,-6.712 -1.561,3.769 -2.721,5.527 -2.975,6.518 -0.253,-0.991 -1.413,-2.749 -2.975,-6.518 1.562,3.769 1.984,5.832 2.506,6.712 -0.88,-0.522 -2.943,-0.944 -6.712,-2.505 3.769,1.561 5.526,2.721 6.518,2.974 -0.991,0.253 -2.748,1.413 -6.517,2.974 3.769,-1.561 5.832,-1.984 6.712,-2.506 -0.522,0.88 -0.944,2.943 -2.506,6.712 1.561,-3.769 2.721,-5.526 2.974,-6.518 0.254,0.992 1.413,2.749 2.975,6.517 -1.561,-3.769 -1.984,-5.831 -2.506,-6.712 0.88,0.522 2.943,0.944 6.712,2.505 -3.77,-1.559 -5.527,-2.719 -6.518,-2.972 z m -0.663,0 z m 0,0 z m 0,0 z m 0,0 z m 10.294,-7.039 -0.386,2.935 2.348,1.802 2.734,-1.133 0.387,-2.935 -2.348,-1.801 z m -25.3,10.481 -0.387,2.934 2.349,1.802 2.734,-1.133 0.386,-2.934 -2.348,-1.802 z M 87.348,13.722 c -3.769,1.561 -5.832,1.984 -6.712,2.506 0.522,-0.88 0.944,-2.943 2.506,-6.712 -1.561,3.769 -2.721,5.526 -2.974,6.518 -0.253,-0.991 -1.413,-2.749 -2.975,-6.518 1.562,3.769 1.984,5.832 2.506,6.712 -0.88,-0.522 -2.943,-0.944 -6.712,-2.505 3.769,1.561 5.526,2.721 6.518,2.974 -0.991,0.253 -2.748,1.413 -6.518,2.974 3.769,-1.561 5.832,-1.984 6.712,-2.506 -0.522,0.88 -0.944,2.943 -2.506,6.712 1.561,-3.769 2.721,-5.526 2.974,-6.518 0.253,0.991 1.413,2.749 2.975,6.518 -1.561,-3.769 -1.984,-5.832 -2.506,-6.712 0.88,0.522 2.943,0.944 6.712,2.505 -3.769,-1.561 -5.527,-2.721 -6.518,-2.974 0.991,-0.253 2.748,-1.413 6.518,-2.974 z m -7.181,2.974 z m 0,0 z m 0,0 z m 0,0 z m 14.99,-3.435 0.386,-2.935 -2.348,-1.801 -2.734,1.133 -0.386,2.934 2.348,1.802 z m -25.3,10.48 0.386,-2.934 -2.348,-1.802 -2.734,1.133 -0.387,2.934 2.349,1.802 z"
       id="path1"
       style="fill:url(#linearGradient5)" />
  </g>
  <g
     id="SvgjsG9297"
     featurekey="symbolFeature-0"
     transform="matrix(0.69079556,0,0,0.69079556,-103.34992,-16.018774)"
     fill="url(#SvgjsLinearGradient9308)"
     style="display:inline;fill:url(#linearGradient10)">
    <g
       fill="url(#SvgjsLinearGradient9308)"
       fill-rule="evenodd"
       id="g3"
       style="fill:url(#linearGradient9)">
      <path
         d="m 54.353068,49.289422 c 3.021681,-3.112868 6.305478,-6.443009 9.878497,-10.007447 0.0051,-0.0051 0.01029,-0.01026 0.01544,-0.01541 3.63952,-3.63952 7.798972,2.599657 15.597944,-5.199315 C 85.701618,28.210589 95.702862,15.089755 95.962828,14.82979 96.222794,14.569824 95.832845,14.179875 95.57288,14.439841 95.312914,14.699807 80.364885,29.38787 79.844953,29.907802 79.325022,30.427733 78.545124,30.167767 78.155176,29.777819 78.285159,29.907802 77.76986,29.392503 77.89521,29.517853 77.509895,29.132538 77.245296,28.348007 77.765227,27.828076 78.285159,27.308144 92.973222,11.320252 93.233188,11.060287 93.493154,10.800321 92.973222,10.280389 92.713256,10.540355 92.453291,10.800321 76.465399,26.008316 75.945467,26.528247 75.425536,27.048179 74.671026,26.8136 74.25569,26.398264 74.41106,26.553635 73.881926,26.0245 73.995724,26.138299 73.62196,25.764534 73.34581,24.968453 73.865741,24.448521 74.385673,23.92859 89.593668,7.9406978 89.853633,7.680732 90.113599,7.4207663 89.593668,6.9008348 89.333702,7.1608006 89.073736,7.4207663 73.085844,22.10883 72.565913,22.628761 72.045981,23.148693 71.278524,22.901167 70.876135,22.498778 71.018558,22.641201 70.486187,22.10883 70.61617,22.238813 70.226221,21.848864 69.966255,21.068967 70.486187,20.549036 71.006118,20.029104 85.694182,5.0810747 85.954148,4.821109 86.214113,4.5611433 85.763426,4.2319338 85.564199,4.4311604 85.364972,4.6303871 74.125707,12.750064 66.326735,20.549036 c -7.798972,7.798971 -1.559794,11.958423 -5.199314,15.597943 -0.0052,0.0051 -0.01028,0.0103 -0.01541,0.01544 -3.607546,3.616231 -6.975094,6.936201 -10.120291,9.988013 1.147702,1.080909 2.267908,2.126777 3.361345,3.138986 z M 49.110059,54.74706 C 24.144935,81.020644 19.990438,89.762317 15.501551,94.251203 13.994504,95.758251 11.015623,95.428477 7.0545491,93.339439 4.9655112,89.378366 4.6357375,86.399485 6.1427852,84.892437 10.638579,80.396644 19.400256,76.236269 45.768335,51.16854 c 1.15312,1.22374 2.266473,2.416287 3.341724,3.57852 z"
         id="path2"
         style="fill:url(#linearGradient7)" />
      <path
         d="m 41.162759,38.167009 c 36.956982,36.833276 47.808499,41.570176 52.991134,46.752811 1.507047,1.507047 1.177274,4.485928 -0.911764,8.447002 -3.961074,2.089038 -6.939955,2.418812 -8.447003,0.911764 C 79.948662,89.432121 75.491981,79.628341 44.813706,48.15523 41.232715,45.798291 36.447124,53.381197 29.034066,45.968139 21.235094,38.169167 1.0640916,12.869981 5.4720186,8.4620541 7.7586253,6.1754475 9.0470875,6.0496962 21.492691,18.495299 c 7.549477,7.549478 14.532129,14.533048 19.670068,19.67171 z"
         id="path3"
         style="fill:url(#linearGradient8)" />
    </g>
  </g>
  <g
     id="SvgjsG9298"
     featurekey="nameLeftFeature-0"
     transform="matrix(2.5531914,0,0,2.5531914,-4.3914892,-15.676591)"
     fill="url(#SvgjsLinearGradient9312)"
     style="display:none;fill:url(#linearGradient12)">
    <path
       d="M 11.22,20 Q 10.78,19.26 10.21,18.34 9.64,17.42 8.98,16.43 8.32,15.44 7.61,14.42 6.9,13.4 6.2,12.45 5.5,11.5 4.84,10.66 4.18,9.82 3.62,9.18 V 20 H 1.72 V 6.14 h 1.54 q 0.94,1 2.01,2.33 1.07,1.33 2.12,2.74 1.05,1.41 1.98,2.77 0.93,1.36 1.57,2.42 V 6.14 h 1.9 V 20 Z m 4.36,-5.18 q 0,-1.38 0.4,-2.41 0.4,-1.03 1.06,-1.71 0.66,-0.68 1.52,-1.02 0.86,-0.34 1.76,-0.34 2.1,0 3.22,1.31 1.12,1.31 1.12,3.99 v 0.31 q 0,0 -0.02,0.35 h -7.12 q 0.12,1.62 0.94,2.46 0.82,0.84 2.56,0.84 0.98,0 1.65,-0.17 0.67,-0.17 1.01,-0.33 l 0.26,1.56 q -0.34,0.18 -1.19,0.38 -0.85,0.2 -1.93,0.2 -1.36,0 -2.35,-0.41 Q 17.48,19.42 16.84,18.7 16.2,17.98 15.89,16.99 15.58,16 15.58,14.82 Z m 7.14,-1.02 q 0.02,-1.26 -0.63,-2.07 -0.65,-0.81 -1.79,-0.81 -0.64,0 -1.13,0.25 -0.49,0.25 -0.83,0.65 -0.34,0.4 -0.53,0.92 -0.19,0.52 -0.25,1.06 z M 33.56,20 q -0.22,-0.44 -0.54,-0.98 -0.32,-0.54 -0.7,-1.11 -0.38,-0.57 -0.78,-1.13 -0.4,-0.56 -0.78,-1.06 -0.38,0.5 -0.78,1.07 -0.4,0.57 -0.77,1.14 -0.37,0.57 -0.69,1.11 -0.32,0.54 -0.54,0.96 h -1.92 q 0.7,-1.36 1.67,-2.77 0.97,-1.41 1.93,-2.69 L 26.22,9.6 h 2.1 l 2.48,3.64 2.5,-3.64 h 1.98 l -3.36,4.82 q 0.96,1.3 1.97,2.75 1.01,1.45 1.71,2.83 z M 39.3,9.6 h 3.94 v 1.56 H 39.3 v 4.8 q 0,0.78 0.12,1.29 0.12,0.51 0.36,0.8 0.24,0.29 0.6,0.41 0.36,0.12 0.84,0.12 0.84,0 1.35,-0.19 0.51,-0.19 0.71,-0.27 l 0.36,1.54 q -0.28,0.14 -0.98,0.35 -0.7,0.21 -1.6,0.21 -1.06,0 -1.75,-0.27 Q 38.62,19.68 38.2,19.14 37.78,18.6 37.61,17.81 37.44,17.02 37.44,15.98 V 6.7 L 39.3,6.38 Z"
       id="path4"
       style="fill:url(#linearGradient11)" />
  </g>
  <g
     id="SvgjsG9299"
     featurekey="nameRightFeature-0"
     transform="matrix(2.4861879,0,0,2.4861879,113.87292,-14.469614)"
     fill="url(#SvgjsLinearGradient9316)"
     style="display:none;fill:url(#linearGradient14)">
    <path
       d="m 9.56,18.62 q 3.04,0 3.04,-2.08 0,-0.64 -0.27,-1.09 Q 12.06,15 11.6,14.67 11.14,14.34 10.55,14.1 9.96,13.86 9.3,13.62 8.54,13.36 7.86,13.03 7.18,12.7 6.68,12.25 6.18,11.8 5.89,11.18 5.6,10.56 5.6,9.68 5.6,7.86 6.84,6.84 8.08,5.82 10.26,5.82 q 1.26,0 2.29,0.27 1.03,0.27 1.51,0.59 L 13.44,8.26 Q 13.02,8 12.19,7.75 11.36,7.5 10.26,7.5 9.7,7.5 9.22,7.62 8.74,7.74 8.38,7.98 8.02,8.22 7.81,8.59 7.6,8.96 7.6,9.46 q 0,0.56 0.22,0.94 0.22,0.38 0.62,0.67 0.4,0.29 0.93,0.53 0.53,0.24 1.17,0.48 0.9,0.36 1.65,0.72 0.75,0.36 1.3,0.86 0.55,0.5 0.85,1.19 0.3,0.69 0.3,1.67 0,1.82 -1.33,2.8 Q 11.98,20.3 9.56,20.3 8.74,20.3 8.05,20.19 7.36,20.08 6.82,19.93 6.28,19.78 5.89,19.61 5.5,19.44 5.28,19.32 l 0.58,-1.6 q 0.46,0.26 1.4,0.58 0.94,0.32 2.3,0.32 z M 18.6,9.6 h 3.94 v 1.56 H 18.6 v 4.8 q 0,0.78 0.12,1.29 0.12,0.51 0.36,0.8 0.24,0.29 0.6,0.41 0.36,0.12 0.84,0.12 0.84,0 1.35,-0.19 0.51,-0.19 0.71,-0.27 l 0.36,1.54 q -0.28,0.14 -0.98,0.35 -0.7,0.21 -1.6,0.21 -1.06,0 -1.75,-0.27 Q 17.92,19.68 17.5,19.14 17.08,18.6 16.91,17.81 16.74,17.02 16.74,15.98 V 6.7 L 18.6,6.38 Z m 15.48,5.2 q 0,1.24 -0.36,2.24 -0.36,1 -1.01,1.72 -0.65,0.72 -1.55,1.11 -0.9,0.39 -1.96,0.39 -1.06,0 -1.96,-0.39 -0.9,-0.39 -1.55,-1.11 -0.65,-0.72 -1.01,-1.72 -0.36,-1 -0.36,-2.24 0,-1.22 0.36,-2.23 0.36,-1.01 1.01,-1.73 0.65,-0.72 1.55,-1.11 0.9,-0.39 1.96,-0.39 1.06,0 1.96,0.39 0.9,0.39 1.55,1.11 0.65,0.72 1.01,1.73 0.36,1.01 0.36,2.23 z m -1.94,0 q 0,-1.76 -0.79,-2.79 -0.79,-1.03 -2.15,-1.03 -1.36,0 -2.15,1.03 -0.79,1.03 -0.79,2.79 0,1.76 0.79,2.79 0.79,1.03 2.15,1.03 1.36,0 2.15,-1.03 0.79,-1.03 0.79,-2.79 z m 8.4,-5.42 q 0.24,0 0.55,0.03 0.31,0.03 0.61,0.08 0.3,0.05 0.55,0.1 0.25,0.05 0.37,0.09 L 42.3,11.3 Q 42.08,11.22 41.57,11.11 41.06,11 40.26,11 q -0.52,0 -1.03,0.11 -0.51,0.11 -0.67,0.15 V 20 H 36.7 v -9.96 q 0.66,-0.24 1.64,-0.45 0.98,-0.21 2.2,-0.21 z m 3.3,5.44 q 0,-1.38 0.4,-2.41 0.4,-1.03 1.06,-1.71 0.66,-0.68 1.52,-1.02 0.86,-0.34 1.76,-0.34 2.1,0 3.22,1.31 1.12,1.31 1.12,3.99 v 0.31 q 0,0 -0.02,0.35 h -7.12 q 0.12,1.62 0.94,2.46 0.82,0.84 2.56,0.84 0.98,0 1.65,-0.17 0.67,-0.17 1.01,-0.33 l 0.26,1.56 q -0.34,0.18 -1.19,0.38 -0.85,0.2 -1.93,0.2 -1.36,0 -2.35,-0.41 Q 45.74,19.42 45.1,18.7 44.46,17.98 44.15,16.99 43.84,16 43.84,14.82 Z M 50.98,13.8 Q 51,12.54 50.35,11.73 49.7,10.92 48.56,10.92 q -0.64,0 -1.13,0.25 -0.49,0.25 -0.83,0.65 -0.34,0.4 -0.53,0.92 -0.19,0.52 -0.25,1.06 z m 7.04,4.86 q 1.14,0 1.69,-0.3 0.55,-0.3 0.55,-0.96 0,-0.68 -0.54,-1.08 -0.54,-0.4 -1.78,-0.9 -0.6,-0.24 -1.15,-0.49 -0.55,-0.25 -0.95,-0.59 -0.4,-0.34 -0.64,-0.82 -0.24,-0.48 -0.24,-1.18 0,-1.38 1.02,-2.19 1.02,-0.81 2.78,-0.81 0.44,0 0.88,0.05 0.44,0.05 0.82,0.12 0.38,0.07 0.67,0.15 0.29,0.08 0.45,0.14 l -0.34,1.6 q -0.3,-0.16 -0.94,-0.33 -0.64,-0.17 -1.54,-0.17 -0.78,0 -1.36,0.31 -0.58,0.31 -0.58,0.97 0,0.34 0.13,0.6 0.13,0.26 0.4,0.47 0.27,0.21 0.67,0.39 0.4,0.18 0.96,0.38 0.74,0.28 1.32,0.55 0.58,0.27 0.99,0.63 0.41,0.36 0.63,0.87 0.22,0.51 0.22,1.25 0,1.44 -1.07,2.18 -1.07,0.74 -3.05,0.74 -1.38,0 -2.16,-0.23 -0.78,-0.23 -1.06,-0.35 l 0.34,-1.6 q 0.32,0.12 1.02,0.36 0.7,0.24 1.86,0.24 z"
       id="path5"
       style="fill:url(#linearGradient13)" />
  </g>
</svg>
