<?xml version="1.0" encoding="UTF-8" standalone="no"?>
<svg
   width="134.54713"
   height="18.048941"
   viewBox="0 0 268.36464 36.000005"
   class="looka-1j8o68f"
   version="1.1"
   id="svg5"
   sodipodi:docname="next-stores-logo.svg"
   inkscape:export-filename="next-stores-logo-title.svg"
   inkscape:export-xdpi="96"
   inkscape:export-ydpi="96"
   xmlns:inkscape="http://www.inkscape.org/namespaces/inkscape"
   xmlns:sodipodi="http://sodipodi.sourceforge.net/DTD/sodipodi-0.dtd"
   xmlns:xlink="http://www.w3.org/1999/xlink"
   xmlns="http://www.w3.org/2000/svg"
   xmlns:svg="http://www.w3.org/2000/svg">
  <sodipodi:namedview
     id="namedview5"
     pagecolor="#505050"
     bordercolor="#eeeeee"
     borderopacity="1"
     inkscape:showpageshadow="0"
     inkscape:pageopacity="0"
     inkscape:pagecheckerboard="0"
     inkscape:deskcolor="#505050" />
  <defs
     id="SvgjsDefs9295">
    <linearGradient
       id="SvgjsLinearGradient9312">
      <stop
         id="SvgjsStop9313"
         stop-color="#905e26"
         offset="0" />
      <stop
         id="SvgjsStop9314"
         stop-color="#f5ec9b"
         offset="0.5" />
      <stop
         id="SvgjsStop9315"
         stop-color="#905e26"
         offset="1" />
    </linearGradient>
    <linearGradient
       id="SvgjsLinearGradient9316">
      <stop
         id="SvgjsStop9317"
         stop-color="#905e26"
         offset="0" />
      <stop
         id="SvgjsStop9318"
         stop-color="#f5ec9b"
         offset="0.5" />
      <stop
         id="SvgjsStop9319"
         stop-color="#905e26"
         offset="1" />
    </linearGradient>
    <linearGradient
       inkscape:collect="always"
       xlink:href="#SvgjsLinearGradient9312"
       id="linearGradient11"
       gradientTransform="scale(1.7242534,0.57996117)"
       x1="0.9975332"
       y1="10.586916"
       x2="25.309505"
       y2="10.586916"
       gradientUnits="userSpaceOnUse" />
    <linearGradient
       inkscape:collect="always"
       xlink:href="#SvgjsLinearGradient9312"
       id="linearGradient12"
       gradientTransform="scale(1.7242534,0.57996117)"
       x1="0.9975332"
       y1="10.586916"
       x2="25.309505"
       y2="10.586916"
       gradientUnits="userSpaceOnUse" />
    <linearGradient
       inkscape:collect="always"
       xlink:href="#SvgjsLinearGradient9316"
       id="linearGradient13"
       gradientTransform="scale(1.9816144,0.50463905)"
       x1="2.6644943"
       y1="11.532996"
       x2="31.358271"
       y2="11.532996"
       gradientUnits="userSpaceOnUse" />
    <linearGradient
       inkscape:collect="always"
       xlink:href="#SvgjsLinearGradient9316"
       id="linearGradient14"
       gradientTransform="scale(1.9816144,0.50463905)"
       x1="2.6644943"
       y1="11.532996"
       x2="31.358271"
       y2="11.532996"
       gradientUnits="userSpaceOnUse" />
  </defs>
  <g
     id="SvgjsG9298"
     featurekey="nameLeftFeature-0"
     transform="matrix(2.5531914,0,0,2.5531914,-4.3914892,-15.676591)"
     fill="url(#SvgjsLinearGradient9312)"
     style="display:inline;fill:url(#linearGradient12)">
    <path
       d="M 11.22,20 Q 10.78,19.26 10.21,18.34 9.64,17.42 8.98,16.43 8.32,15.44 7.61,14.42 6.9,13.4 6.2,12.45 5.5,11.5 4.84,10.66 4.18,9.82 3.62,9.18 V 20 H 1.72 V 6.14 h 1.54 q 0.94,1 2.01,2.33 1.07,1.33 2.12,2.74 1.05,1.41 1.98,2.77 0.93,1.36 1.57,2.42 V 6.14 h 1.9 V 20 Z m 4.36,-5.18 q 0,-1.38 0.4,-2.41 0.4,-1.03 1.06,-1.71 0.66,-0.68 1.52,-1.02 0.86,-0.34 1.76,-0.34 2.1,0 3.22,1.31 1.12,1.31 1.12,3.99 v 0.31 q 0,0 -0.02,0.35 h -7.12 q 0.12,1.62 0.94,2.46 0.82,0.84 2.56,0.84 0.98,0 1.65,-0.17 0.67,-0.17 1.01,-0.33 l 0.26,1.56 q -0.34,0.18 -1.19,0.38 -0.85,0.2 -1.93,0.2 -1.36,0 -2.35,-0.41 Q 17.48,19.42 16.84,18.7 16.2,17.98 15.89,16.99 15.58,16 15.58,14.82 Z m 7.14,-1.02 q 0.02,-1.26 -0.63,-2.07 -0.65,-0.81 -1.79,-0.81 -0.64,0 -1.13,0.25 -0.49,0.25 -0.83,0.65 -0.34,0.4 -0.53,0.92 -0.19,0.52 -0.25,1.06 z M 33.56,20 q -0.22,-0.44 -0.54,-0.98 -0.32,-0.54 -0.7,-1.11 -0.38,-0.57 -0.78,-1.13 -0.4,-0.56 -0.78,-1.06 -0.38,0.5 -0.78,1.07 -0.4,0.57 -0.77,1.14 -0.37,0.57 -0.69,1.11 -0.32,0.54 -0.54,0.96 h -1.92 q 0.7,-1.36 1.67,-2.77 0.97,-1.41 1.93,-2.69 L 26.22,9.6 h 2.1 l 2.48,3.64 2.5,-3.64 h 1.98 l -3.36,4.82 q 0.96,1.3 1.97,2.75 1.01,1.45 1.71,2.83 z M 39.3,9.6 h 3.94 v 1.56 H 39.3 v 4.8 q 0,0.78 0.12,1.29 0.12,0.51 0.36,0.8 0.24,0.29 0.6,0.41 0.36,0.12 0.84,0.12 0.84,0 1.35,-0.19 0.51,-0.19 0.71,-0.27 l 0.36,1.54 q -0.28,0.14 -0.98,0.35 -0.7,0.21 -1.6,0.21 -1.06,0 -1.75,-0.27 Q 38.62,19.68 38.2,19.14 37.78,18.6 37.61,17.81 37.44,17.02 37.44,15.98 V 6.7 L 39.3,6.38 Z"
       id="path4"
       style="fill:url(#linearGradient11)" />
  </g>
  <g
     id="SvgjsG9299"
     featurekey="nameRightFeature-0"
     transform="matrix(2.4861879,0,0,2.4861879,113.87292,-14.469614)"
     fill="url(#SvgjsLinearGradient9316)"
     style="display:inline;fill:url(#linearGradient14)">
    <path
       d="m 9.56,18.62 q 3.04,0 3.04,-2.08 0,-0.64 -0.27,-1.09 Q 12.06,15 11.6,14.67 11.14,14.34 10.55,14.1 9.96,13.86 9.3,13.62 8.54,13.36 7.86,13.03 7.18,12.7 6.68,12.25 6.18,11.8 5.89,11.18 5.6,10.56 5.6,9.68 5.6,7.86 6.84,6.84 8.08,5.82 10.26,5.82 q 1.26,0 2.29,0.27 1.03,0.27 1.51,0.59 L 13.44,8.26 Q 13.02,8 12.19,7.75 11.36,7.5 10.26,7.5 9.7,7.5 9.22,7.62 8.74,7.74 8.38,7.98 8.02,8.22 7.81,8.59 7.6,8.96 7.6,9.46 q 0,0.56 0.22,0.94 0.22,0.38 0.62,0.67 0.4,0.29 0.93,0.53 0.53,0.24 1.17,0.48 0.9,0.36 1.65,0.72 0.75,0.36 1.3,0.86 0.55,0.5 0.85,1.19 0.3,0.69 0.3,1.67 0,1.82 -1.33,2.8 Q 11.98,20.3 9.56,20.3 8.74,20.3 8.05,20.19 7.36,20.08 6.82,19.93 6.28,19.78 5.89,19.61 5.5,19.44 5.28,19.32 l 0.58,-1.6 q 0.46,0.26 1.4,0.58 0.94,0.32 2.3,0.32 z M 18.6,9.6 h 3.94 v 1.56 H 18.6 v 4.8 q 0,0.78 0.12,1.29 0.12,0.51 0.36,0.8 0.24,0.29 0.6,0.41 0.36,0.12 0.84,0.12 0.84,0 1.35,-0.19 0.51,-0.19 0.71,-0.27 l 0.36,1.54 q -0.28,0.14 -0.98,0.35 -0.7,0.21 -1.6,0.21 -1.06,0 -1.75,-0.27 Q 17.92,19.68 17.5,19.14 17.08,18.6 16.91,17.81 16.74,17.02 16.74,15.98 V 6.7 L 18.6,6.38 Z m 15.48,5.2 q 0,1.24 -0.36,2.24 -0.36,1 -1.01,1.72 -0.65,0.72 -1.55,1.11 -0.9,0.39 -1.96,0.39 -1.06,0 -1.96,-0.39 -0.9,-0.39 -1.55,-1.11 -0.65,-0.72 -1.01,-1.72 -0.36,-1 -0.36,-2.24 0,-1.22 0.36,-2.23 0.36,-1.01 1.01,-1.73 0.65,-0.72 1.55,-1.11 0.9,-0.39 1.96,-0.39 1.06,0 1.96,0.39 0.9,0.39 1.55,1.11 0.65,0.72 1.01,1.73 0.36,1.01 0.36,2.23 z m -1.94,0 q 0,-1.76 -0.79,-2.79 -0.79,-1.03 -2.15,-1.03 -1.36,0 -2.15,1.03 -0.79,1.03 -0.79,2.79 0,1.76 0.79,2.79 0.79,1.03 2.15,1.03 1.36,0 2.15,-1.03 0.79,-1.03 0.79,-2.79 z m 8.4,-5.42 q 0.24,0 0.55,0.03 0.31,0.03 0.61,0.08 0.3,0.05 0.55,0.1 0.25,0.05 0.37,0.09 L 42.3,11.3 Q 42.08,11.22 41.57,11.11 41.06,11 40.26,11 q -0.52,0 -1.03,0.11 -0.51,0.11 -0.67,0.15 V 20 H 36.7 v -9.96 q 0.66,-0.24 1.64,-0.45 0.98,-0.21 2.2,-0.21 z m 3.3,5.44 q 0,-1.38 0.4,-2.41 0.4,-1.03 1.06,-1.71 0.66,-0.68 1.52,-1.02 0.86,-0.34 1.76,-0.34 2.1,0 3.22,1.31 1.12,1.31 1.12,3.99 v 0.31 q 0,0 -0.02,0.35 h -7.12 q 0.12,1.62 0.94,2.46 0.82,0.84 2.56,0.84 0.98,0 1.65,-0.17 0.67,-0.17 1.01,-0.33 l 0.26,1.56 q -0.34,0.18 -1.19,0.38 -0.85,0.2 -1.93,0.2 -1.36,0 -2.35,-0.41 Q 45.74,19.42 45.1,18.7 44.46,17.98 44.15,16.99 43.84,16 43.84,14.82 Z M 50.98,13.8 Q 51,12.54 50.35,11.73 49.7,10.92 48.56,10.92 q -0.64,0 -1.13,0.25 -0.49,0.25 -0.83,0.65 -0.34,0.4 -0.53,0.92 -0.19,0.52 -0.25,1.06 z m 7.04,4.86 q 1.14,0 1.69,-0.3 0.55,-0.3 0.55,-0.96 0,-0.68 -0.54,-1.08 -0.54,-0.4 -1.78,-0.9 -0.6,-0.24 -1.15,-0.49 -0.55,-0.25 -0.95,-0.59 -0.4,-0.34 -0.64,-0.82 -0.24,-0.48 -0.24,-1.18 0,-1.38 1.02,-2.19 1.02,-0.81 2.78,-0.81 0.44,0 0.88,0.05 0.44,0.05 0.82,0.12 0.38,0.07 0.67,0.15 0.29,0.08 0.45,0.14 l -0.34,1.6 q -0.3,-0.16 -0.94,-0.33 -0.64,-0.17 -1.54,-0.17 -0.78,0 -1.36,0.31 -0.58,0.31 -0.58,0.97 0,0.34 0.13,0.6 0.13,0.26 0.4,0.47 0.27,0.21 0.67,0.39 0.4,0.18 0.96,0.38 0.74,0.28 1.32,0.55 0.58,0.27 0.99,0.63 0.41,0.36 0.63,0.87 0.22,0.51 0.22,1.25 0,1.44 -1.07,2.18 -1.07,0.74 -3.05,0.74 -1.38,0 -2.16,-0.23 -0.78,-0.23 -1.06,-0.35 l 0.34,-1.6 q 0.32,0.12 1.02,0.36 0.7,0.24 1.86,0.24 z"
       id="path5"
       style="fill:url(#linearGradient13)" />
  </g>
</svg>
