<?xml version="1.0" encoding="UTF-8" standalone="no"?>
<!-- Created with Inkscape (http://www.inkscape.org/) -->

<svg
   width="22.226mm"
   height="22.226mm"
   viewBox="0 0 22.226 22.226"
   version="1.1"
   id="svg1"
   xml:space="preserve"
   inkscape:export-filename="next-infinity\public\img\next-infinity-logo-icon.svg"
   inkscape:export-xdpi="96"
   inkscape:export-ydpi="96"
   inkscape:version="1.3 (0e150ed6c4, 2023-07-21)"
   sodipodi:docname="next-infinity-logo.svg"
   xmlns:inkscape="http://www.inkscape.org/namespaces/inkscape"
   xmlns:sodipodi="http://sodipodi.sourceforge.net/DTD/sodipodi-0.dtd"
   xmlns="http://www.w3.org/2000/svg"
   xmlns:svg="http://www.w3.org/2000/svg"><sodipodi:namedview
     id="namedview1"
     pagecolor="#505050"
     bordercolor="#eeeeee"
     borderopacity="1"
     inkscape:showpageshadow="0"
     inkscape:pageopacity="0"
     inkscape:pagecheckerboard="0"
     inkscape:deskcolor="#505050"
     inkscape:document-units="mm"
     inkscape:zoom="0.89263468"
     inkscape:cx="322.64039"
     inkscape:cy="94.663586"
     inkscape:window-width="1366"
     inkscape:window-height="697"
     inkscape:window-x="-8"
     inkscape:window-y="-8"
     inkscape:window-maximized="1"
     inkscape:current-layer="g1" /><defs
     id="defs1" /><g
     inkscape:label="Layer 1"
     inkscape:groupmode="layer"
     id="layer1"
     transform="translate(-32.251927,-142.90675)"><g
       id="g1"
       transform="matrix(0.39371341,0,0,0.39371341,30.401628,143.65522)"><g
         id="SvgjsG1012"
         featurekey="hmhgWD-0"
         transform="matrix(0.62723318,0,0,0.62723318,1.5643782,-5.036597)"
         fill="#3e588f"
         inkscape:export-filename="next-infinity-logo-icon.png"
         inkscape:export-xdpi="96"
         inkscape:export-ydpi="96"><polygon
           points="4.999,52.922 4.999,47.078 26.039,26.039 31.883,26.039 71.039,65.195 86.234,50 71.039,34.804 59.447,46.398 53.603,40.553 68.117,26.039 73.961,26.039 95,47.079 95,52.922 73.961,73.961 68.117,73.961 28.961,34.804 13.766,50 28.961,65.195 40.553,53.604 46.396,59.447 31.883,73.961 26.039,73.961 "
           id="polygon1" /></g><g
         id="SvgjsG1013"
         featurekey="1RRcwp-0"
         transform="matrix(2.2544572,0,0,2.2544572,78.129527,-20.947897)"
         fill="#111111"
         style="display:none"
         inkscape:export-filename="next-infinity-logo-title.png"
         inkscape:export-xdpi="96"
         inkscape:export-ydpi="96"><path
           d="m 8.94,7.76 h 3 V 20 h -3 L 4.14,12.84 V 20 h -3 V 7.76 h 3 l 4.8,7.16 z m 9.454,6.04 c 0.3,0.1 0.64,0.18 1,0.22 0.36,0.06 0.7,0.08 1.02,0.08 0.4,0 1.42,-0.08 1.42,-0.66 0,-0.62 -0.88,-0.64 -1.32,-0.64 -0.88,0 -1.64,0.2 -2.12,1 z m 5.66,3.08 v 2.8 c -1.12,0.26 -2.24,0.44 -3.4,0.44 -3.18,0 -5.54,-1.86 -5.54,-5.08 0,-3.18 2.28,-5.14 5.3,-5.14 2.06,0 4.44,0.98 4.44,3.32 0,2.32 -2.52,3.18 -4.46,3.18 -0.74,0 -1.48,-0.2 -2.16,-0.48 0.4,1.12 1.6,1.3 2.64,1.3 0.54,0 1.08,-0.02 1.62,-0.1 0.5,-0.04 1.08,-0.1 1.56,-0.24 z m 8.414,0.24 -2.1,2.88 h -3.3 l 3.76,-5.14 -3.56,-4.86 h 3.3 l 1.9,2.6 1.9,-2.6 h 3.3 l -3.54,4.86 3.74,5.14 h -3.3 z m 13.774,-6.78 v 2.78 h -2.8 V 15 c 0,1.54 1.02,2.32 2.5,2.32 0.18,0 0.34,-0.02 0.48,-0.04 0.14,-0.02 0.26,-0.04 0.4,-0.06 V 20 c -0.18,0.02 -0.32,0.06 -0.42,0.08 -0.12,0.02 -0.32,0.02 -0.58,0.02 -3.02,0 -5.38,-2.06 -5.38,-5.1 V 7.6 h 3 v 2.74 z M 56.07,7.76 h 3 V 20 h -3 z M 72.984,15 v 5 h -3 v -5 c 0,-1.38 -0.64,-2.32 -2.1,-2.32 -1.44,0 -2.1,0.96 -2.1,2.32 v 5 h -3 v -5 c 0,-3.08 2.12,-5.1 5.1,-5.1 3.1,0 5.1,2.12 5.1,5.1 z m 8.894,-4.66 v 2.78 h -2.46 V 20 h -3 v -9.98 c 0,-3.32 2.44,-5.12 5.52,-5.12 0.1,0 0.24,0 0.38,0.02 0.14,0.02 0.3,0.06 0.44,0.08 v 2.9 c -0.1,-0.02 -0.22,-0.04 -0.36,-0.06 -0.14,-0.02 -0.26,-0.04 -0.36,-0.04 -0.5,0 -0.9,0.06 -1.24,0.16 -0.56,0.2 -1.06,0.58 -1.24,1.18 -0.1,0.26 -0.14,0.56 -0.14,0.86 v 0.34 z M 85.552,10 h 3 v 10 h -3 z m 1.5,-0.94 c -1.02,0 -1.74,-0.72 -1.74,-1.74 0,-1.04 0.72,-1.72 1.74,-1.72 1.04,0 1.72,0.68 1.72,1.72 0,1.06 -0.66,1.74 -1.72,1.74 z M 102.446,15 v 5 h -3 v -5 c 0,-1.38 -0.64,-2.32 -2.1,-2.32 -1.44,0 -2.1,0.96 -2.1,2.32 v 5 h -3 v -5 c 0,-3.08 2.12,-5.1 5.1,-5.1 3.1,0 5.1,2.12 5.1,5.1 z m 3.334,-5 h 3 v 10 h -3 z m 1.5,-0.94 c -1.02,0 -1.74,-0.72 -1.74,-1.74 0,-1.04 0.72,-1.72 1.74,-1.72 1.04,0 1.72,0.68 1.72,1.72 0,1.06 -0.66,1.74 -1.72,1.74 z m 10.834,1.28 v 2.78 h -2.8 V 15 c 0,1.54 1.02,2.32 2.5,2.32 0.18,0 0.34,-0.02 0.48,-0.04 0.14,-0.02 0.26,-0.04 0.4,-0.06 V 20 c -0.18,0.02 -0.32,0.06 -0.42,0.08 -0.12,0.02 -0.32,0.02 -0.58,0.02 -3.02,0 -5.38,-2.06 -5.38,-5.1 V 7.6 h 3 v 2.74 z M 128.348,15 v -5 h 3 v 9.48 c 0,3.18 -2.28,5.12 -5.3,5.12 -1.06,0 -2.12,-0.1 -3.14,-0.44 v -3.08 c 0.86,0.46 2.02,0.62 2.98,0.62 1.08,0 1.94,-0.32 2.34,-1.36 0.08,-0.28 0.12,-0.58 0.12,-0.88 V 19 c -0.68,0.76 -1.56,1.1 -2.56,1.1 -2.84,0 -4.64,-2.44 -4.64,-5.1 v -5 h 3 v 5 c 0,1.36 0.54,2.32 2,2.32 1.42,0 2.2,-0.94 2.2,-2.32 z"
           id="path1" /></g></g></g></svg>
