<?xml version="1.0" encoding="UTF-8" standalone="no"?>
<svg
   width="158.38884"
   height="37.158249"
   viewBox="0 0 273.91305 64.260392"
   class="looka-1j8o68f"
   version="1.1"
   id="svg4"
   sodipodi:docname="next-blog-logo.svg"
   inkscape:export-filename="next-blog-logo-icon.svg"
   inkscape:export-xdpi="96"
   inkscape:export-ydpi="96"
   xmlns:inkscape="http://www.inkscape.org/namespaces/inkscape"
   xmlns:sodipodi="http://sodipodi.sourceforge.net/DTD/sodipodi-0.dtd"
   xmlns="http://www.w3.org/2000/svg"
   xmlns:svg="http://www.w3.org/2000/svg">
  <sodipodi:namedview
     id="namedview4"
     pagecolor="#505050"
     bordercolor="#eeeeee"
     borderopacity="1"
     inkscape:showpageshadow="0"
     inkscape:pageopacity="0"
     inkscape:pagecheckerboard="0"
     inkscape:deskcolor="#505050" />
  <defs
     id="SvgjsDefs1935" />
  <g
     id="SvgjsG1937"
     featurekey="Q4qmbg-0"
     transform="matrix(3.4000209,0,0,3.4000209,-3.4000241,-20.400126)"
     fill="#364f6b"
     style="display:inline">
    <path
       d="m 11.2,15 v 5 h -3 V 15 C 8.2,13.62 7.56,12.68 6.1,12.68 4.66,12.68 4,13.64 4,15 v 5 H 1 v -5 c 0,-3.08 2.12,-5.1 5.1,-5.1 3.1,0 5.1,2.12 5.1,5.1 z m 4.025271,-1.2 c 0.3,0.1 0.64,0.18 1,0.22 0.36,0.06 0.7,0.08 1.02,0.08 0.4,0 1.42,-0.08 1.42,-0.66 0,-0.62 -0.88,-0.64 -1.32,-0.64 -0.88,0 -1.64,0.2 -2.12,1 z m 5.66,3.08 v 2.8 c -1.12,0.26 -2.24,0.44 -3.4,0.44 -3.18,0 -5.54,-1.86 -5.54,-5.08 0,-3.18 2.28,-5.14 5.3,-5.14 2.06,0 4.44,0.98 4.44,3.32 0,2.32 -2.52,3.18 -4.46,3.18 -0.74,0 -1.48,-0.2 -2.16,-0.48 0.4,1.12 1.6,1.3 2.64,1.3 0.54,0 1.08,-0.02 1.62,-0.1 0.5,-0.04 1.08,-0.1 1.56,-0.24 z m 6.305271,0.24 -2.1,2.88 h -3.3 l 3.76,-5.14 -3.56,-4.86 h 3.3 l 1.9,2.6 1.9,-2.6 h 3.3 l -3.54,4.86 3.74,5.14 h -3.3 z m 11.66527,-6.78 v 2.78 H 36.055813 V 15 c 0,1.54 1.02,2.32 2.5,2.32 0.18,0 0.34,-0.02 0.479999,-0.04 0.14,-0.02 0.26,-0.04 0.4,-0.06 V 20 c -0.18,0.02 -0.32,0.06 -0.42,0.08 -0.12,0.02 -0.32,0.02 -0.58,0.02 -3.02,0 -5.38,-2.06 -5.38,-5.1 V 7.6 h 3 v 2.74 z M 47.346354,15 c 0,1.48 0.74,2.32 2.24,2.32 0.42,0 0.8,-0.06 1.1,-0.2 0.56,-0.22 0.94,-0.64 1.14,-1.22 0.08,-0.28 0.12,-0.58 0.12,-0.9 0,-0.32 -0.04,-0.62 -0.12,-0.9 -0.22,-0.62 -0.56,-0.96 -1.14,-1.24 -0.3,-0.12 -0.68,-0.18 -1.1,-0.18 -1.5,0 -2.24,0.84 -2.24,2.32 z m -3,-9 h 3 v 5 c 0.68,-0.78 1.6,-1.1 2.62,-1.1 2.92,0 4.98,2.34 4.98,5.14 0,3.16 -2.34,5.06 -5.32,5.06 -3.1,0 -5.28,-2.04 -5.28,-5.1 z m 11.385271,0 h 3 v 14 h -3 z m 9.305271,11.32 c 1.46,0 2.3,-0.86 2.3,-2.32 0,-1.46 -0.84,-2.32 -2.3,-2.32 -1.46,0 -2.3,0.86 -2.3,2.32 0,1.46 0.84,2.32 2.3,2.32 z m 0,2.78 c -3.08,0 -5.3,-2.04 -5.3,-5.1 0,-3.16 2.3,-5.1 5.3,-5.1 3.1,0 5.3,2.04 5.3,5.1 0,3.14 -2.32,5.1 -5.3,5.1 z M 77.522167,14 c 0,-1.06 -1.02,-1.32 -1.9,-1.32 -0.88,0 -1.9,0.26 -1.9,1.32 0,1.06 1.02,1.32 1.9,1.32 0.88,0 1.9,-0.26 1.9,-1.32 z m -0.8,7.9 c 0,-0.68 -0.48,-0.94 -1.1,-0.94 -0.62,0 -1.1,0.26 -1.1,0.94 0,0.68 0.48,0.94 1.1,0.94 0.62,0 1.1,-0.26 1.1,-0.94 z m 2.7,0 c 0,2.12 -1.98,3 -3.8,3 -1.84,0 -3.8,-0.96 -3.8,-3 0,-1.5 1.1,-2.52 2.5,-2.84 v -1.08 c -0.58,-0.1 -1.08,-0.28 -1.52,-0.54 -1.3,-0.68 -2.08,-1.98 -2.08,-3.44 0,-2.76 2.46,-4.1 4.9,-4.1 1.08,0 2,0.2 2.76,0.62 0.78,-0.38 1.54,-0.52 2.4,-0.52 h 0.78 v 2.42 h -0.44 -0.44 c -0.14,0.02 -0.3,0.04 -0.46,0.08 0.2,0.46 0.3,0.96 0.3,1.5 0,2.14 -1.54,3.54 -3.5,3.96 v 1.12 c 1.34,0.38 2.4,1.36 2.4,2.82 z"
       id="path4" />
  </g>
</svg>
