<?xml version="1.0" encoding="UTF-8" standalone="no"?>
<svg
   width="49.352566"
   height="49.352962"
   viewBox="0 0 98.437501 98.438293"
   class="looka-1j8o68f"
   version="1.1"
   id="svg5"
   sodipodi:docname="next-stores-logo.svg"
   inkscape:export-filename="next-stores-logo.png"
   inkscape:export-xdpi="96"
   inkscape:export-ydpi="96"
   xmlns:inkscape="http://www.inkscape.org/namespaces/inkscape"
   xmlns:sodipodi="http://sodipodi.sourceforge.net/DTD/sodipodi-0.dtd"
   xmlns:xlink="http://www.w3.org/1999/xlink"
   xmlns="http://www.w3.org/2000/svg"
   xmlns:svg="http://www.w3.org/2000/svg">
  <sodipodi:namedview
     id="namedview5"
     pagecolor="#505050"
     bordercolor="#eeeeee"
     borderopacity="1"
     inkscape:showpageshadow="0"
     inkscape:pageopacity="0"
     inkscape:pagecheckerboard="0"
     inkscape:deskcolor="#505050" />
  <defs
     id="SvgjsDefs9295">
    <linearGradient
       id="SvgjsLinearGradient9304">
      <stop
         id="SvgjsStop9305"
         stop-color="#905e26"
         offset="0" />
      <stop
         id="SvgjsStop9306"
         stop-color="#f5ec9b"
         offset="0.5" />
      <stop
         id="SvgjsStop9307"
         stop-color="#905e26"
         offset="1" />
    </linearGradient>
    <linearGradient
       id="SvgjsLinearGradient9308">
      <stop
         id="SvgjsStop9309"
         stop-color="#905e26"
         offset="0" />
      <stop
         id="SvgjsStop9310"
         stop-color="#f5ec9b"
         offset="0.5" />
      <stop
         id="SvgjsStop9311"
         stop-color="#905e26"
         offset="1" />
    </linearGradient>
    <linearGradient
       inkscape:collect="always"
       xlink:href="#SvgjsLinearGradient9304"
       id="linearGradient5"
       gradientTransform="scale(0.999996)"
       x1="0.001000004"
       y1="0"
       x2="250.07401"
       y2="0"
       gradientUnits="userSpaceOnUse" />
    <linearGradient
       inkscape:collect="always"
       xlink:href="#SvgjsLinearGradient9304"
       id="linearGradient6"
       gradientTransform="scale(0.999996)"
       x1="0.001000004"
       y1="0"
       x2="250.07401"
       y2="0"
       gradientUnits="userSpaceOnUse" />
    <linearGradient
       inkscape:collect="always"
       xlink:href="#SvgjsLinearGradient9308"
       id="linearGradient7"
       gradientTransform="scale(1.0001353,0.99986474)"
       x1="5.2092953"
       y1="4.3705912"
       x2="96.035568"
       y2="4.3705912"
       gradientUnits="userSpaceOnUse" />
    <linearGradient
       inkscape:collect="always"
       xlink:href="#SvgjsLinearGradient9308"
       id="linearGradient8"
       gradientTransform="scale(1.0129594,0.98720636)"
       x1="4.7873302"
       y1="7.3624148"
       x2="93.870171"
       y2="7.3624148"
       gradientUnits="userSpaceOnUse" />
    <linearGradient
       inkscape:collect="always"
       xlink:href="#SvgjsLinearGradient9308"
       id="linearGradient9"
       gradientTransform="scale(1.0019675,0.99803634)"
       x1="4.839849"
       y1="4.3785982"
       x2="95.859955"
       y2="4.3785982"
       gradientUnits="userSpaceOnUse" />
    <linearGradient
       inkscape:collect="always"
       xlink:href="#SvgjsLinearGradient9308"
       id="linearGradient10"
       gradientTransform="scale(1.0019675,0.99803634)"
       x1="4.839849"
       y1="4.3785982"
       x2="95.859955"
       y2="4.3785982"
       gradientUnits="userSpaceOnUse" />
  </defs>
  <g
     id="SvgjsG9296"
     featurekey="symbolGroupContainer"
     transform="matrix(0.39363665,0,0,0.39363665,-3.9363665e-4,0)"
     fill="url(#SvgjsLinearGradient9304)"
     style="fill:url(#linearGradient6)">
    <path
       d="m 125.64,7.519 c 0.819,-0.613 1.999,-2.357 4.883,-5.242 -2.885,2.885 -4.629,4.064 -5.242,4.883 0.145,-1.013 -0.254,-3.08 -0.254,-7.16 0,4.08 -0.399,6.147 -0.253,7.16 -0.614,-0.819 -2.358,-1.999 -5.242,-4.883 2.885,2.885 4.064,4.628 4.884,5.242 -1.013,-0.145 -3.08,0.254 -7.16,0.253 4.08,0 6.147,0.399 7.16,0.254 -0.819,0.613 -1.999,2.357 -4.884,5.242 2.885,-2.885 4.629,-4.064 5.242,-4.883 -0.145,1.013 0.254,3.08 0.254,7.16 0,-4.08 0.399,-6.147 0.254,-7.16 0.613,0.819 2.357,1.999 5.242,4.883 -2.885,-2.885 -4.064,-4.628 -4.883,-5.242 1.013,0.146 3.08,-0.254 7.16,-0.253 -4.081,-10e-4 -6.148,-0.4 -7.161,-0.254 z m -15.776,-2.31 -1.48,2.563 1.48,2.563 h 2.96 l 1.48,-2.563 -1.48,-2.563 z m 27.385,0 -1.48,2.563 1.48,2.563 h 2.96 l 1.48,-2.563 -1.48,-2.563 z M 132.8,242.301 c -4.08,0 -6.147,-0.399 -7.16,-0.254 0.819,-0.613 1.999,-2.357 4.883,-5.242 -2.885,2.885 -4.629,4.064 -5.242,4.883 0.145,-1.013 -0.254,-3.08 -0.254,-7.16 0,4.08 -0.399,6.147 -0.253,7.16 -0.614,-0.819 -2.358,-1.999 -5.242,-4.883 2.885,2.885 4.065,4.629 4.884,5.242 -1.013,-0.145 -3.08,0.254 -7.16,0.254 4.08,0 6.147,0.399 7.16,0.254 -0.819,0.614 -1.999,2.357 -4.884,5.242 2.885,-2.885 4.629,-4.064 5.242,-4.883 -0.145,1.013 0.254,3.08 0.254,7.16 0,-4.08 0.399,-6.147 0.254,-7.16 0.613,0.819 2.357,1.999 5.242,4.883 -2.885,-2.885 -4.064,-4.628 -4.883,-5.242 1.012,0.145 3.079,-0.254 7.159,-0.254 z m -22.936,-2.564 -1.48,2.564 1.48,2.563 h 2.96 l 1.48,-2.563 -1.48,-2.564 z m 27.385,0 -1.48,2.564 1.48,2.563 h 2.96 l 1.48,-2.563 -1.48,-2.564 z M 242.913,125.282 c 1.013,0.145 3.08,-0.254 7.16,-0.254 -4.08,0 -6.147,-0.399 -7.16,-0.253 0.819,-0.614 1.999,-2.358 4.883,-5.242 -2.885,2.885 -4.629,4.064 -5.242,4.884 0.145,-1.013 -0.254,-3.08 -0.254,-7.16 0,4.08 -0.399,6.147 -0.254,7.16 -0.614,-0.819 -2.357,-1.999 -5.242,-4.883 2.885,2.885 4.064,4.629 4.883,5.242 -1.013,-0.145 -3.08,0.254 -7.16,0.254 4.08,0 6.147,0.399 7.16,0.253 -0.819,0.614 -1.998,2.357 -4.883,5.242 2.885,-2.885 4.628,-4.064 5.242,-4.883 -0.145,1.013 0.254,3.08 0.253,7.16 0,-4.08 0.399,-6.147 0.254,-7.16 0.613,0.819 2.357,1.999 5.242,4.883 -2.883,-2.886 -4.063,-4.63 -4.882,-5.243 z m -3.176,-12.458 2.564,1.48 2.563,-1.48 v -2.96 l -2.563,-1.48 -2.564,1.48 z m 0,24.425 v 2.96 l 2.564,1.48 2.563,-1.48 v -2.96 l -2.563,-1.48 z M 2.277,130.524 c 2.884,-2.885 4.628,-4.064 5.242,-4.883 -0.145,1.013 0.254,3.08 0.254,7.16 0,-4.08 0.399,-6.147 0.254,-7.16 0.613,0.819 2.357,1.999 5.242,4.884 -2.885,-2.885 -4.064,-4.629 -4.883,-5.242 1.013,0.145 3.08,-0.254 7.16,-0.254 -4.079,0 -6.147,-0.399 -7.16,-0.253 0.819,-0.614 1.998,-2.358 4.883,-5.242 -2.885,2.885 -4.629,4.065 -5.242,4.884 0.146,-1.013 -0.253,-3.08 -0.253,-7.16 0,4.079 -0.399,6.147 -0.254,7.16 -0.613,-0.819 -2.357,-1.999 -5.242,-4.883 2.885,2.885 4.064,4.629 4.883,5.242 -1.013,-0.145 -3.08,0.254 -7.16,0.254 4.08,0 6.147,0.399 7.16,0.253 -0.82,0.611 -2,2.355 -4.884,5.24 z m 5.495,-5.496 z m 0,0 z m 0,0 z m 2.564,-12.204 v -2.96 l -2.564,-1.48 -2.563,1.48 v 2.96 l 2.563,1.48 z m 0,24.425 -2.564,-1.48 -2.563,1.48 v 2.96 l 2.563,1.48 2.564,-1.48 z m 197,-95.391 c -1.013,-0.145 -3.08,0.254 -7.16,0.254 4.08,0 6.147,0.399 7.16,0.254 -0.819,0.613 -1.999,2.357 -4.884,5.242 2.885,-2.885 4.629,-4.065 5.242,-4.883 -0.145,1.013 0.254,3.08 0.254,7.16 0,-4.08 0.399,-6.147 0.253,-7.16 0.613,0.819 2.357,1.999 5.242,4.883 -2.885,-2.885 -4.064,-4.629 -4.883,-5.242 1.013,0.146 3.08,-0.254 7.16,-0.253 -4.079,0 -6.147,-0.399 -7.16,-0.254 0.819,-0.613 1.999,-2.358 4.883,-5.242 -2.885,2.885 -4.629,4.064 -5.242,4.884 0.145,-1.013 -0.254,-3.08 -0.254,-7.16 0,4.08 -0.399,6.147 -0.253,7.16 -0.614,-0.819 -2.357,-1.999 -5.242,-4.884 2.885,2.884 4.065,4.628 4.884,5.241 z m 0.613,0.254 z m 0,0 z m 0,0 z m -7.584,-7.583 0.766,-2.859 -2.092,-2.093 -2.859,0.766 -0.766,2.859 2.093,2.093 z m 14.413,18.037 2.093,2.093 2.859,-0.766 0.766,-2.859 -2.093,-2.093 -2.859,0.767 z M 42.725,208.202 c 1.013,0.145 3.08,-0.254 7.16,-0.253 -4.08,0 -6.147,-0.399 -7.16,-0.254 0.819,-0.613 1.999,-2.357 4.883,-5.242 -2.885,2.885 -4.629,4.065 -5.242,4.884 0.145,-1.013 -0.254,-3.08 -0.254,-7.16 0,4.08 -0.399,6.147 -0.254,7.16 -0.613,-0.819 -2.357,-1.999 -5.242,-4.884 2.885,2.885 4.064,4.629 4.883,5.242 -1.013,-0.145 -3.08,0.254 -7.16,0.254 4.08,0 6.147,0.399 7.16,0.254 -0.819,0.613 -1.999,2.357 -4.883,5.242 2.885,-2.885 4.629,-4.064 5.242,-4.884 -0.145,1.013 0.254,3.08 0.254,7.16 0,-4.08 0.399,-6.147 0.254,-7.16 0.613,0.819 2.357,1.999 5.242,4.884 -2.885,-2.885 -4.064,-4.629 -4.883,-5.243 z m -7.43,-10.695 -2.093,-2.093 -2.859,0.766 -0.766,2.859 2.093,2.093 2.859,-0.766 z m 14.412,18.037 -0.766,2.859 2.093,2.093 2.859,-0.766 0.766,-2.859 -2.093,-2.093 z m 166.026,-7.595 c -4.08,0 -6.147,-0.399 -7.16,-0.254 0.819,-0.613 1.999,-2.357 4.884,-5.242 -2.885,2.885 -4.629,4.064 -5.242,4.883 0.145,-1.013 -0.254,-3.08 -0.253,-7.16 0,4.08 -0.399,6.147 -0.254,7.16 -0.613,-0.819 -2.357,-1.998 -5.242,-4.883 2.885,2.885 4.064,4.629 4.883,5.242 -1.013,-0.145 -3.08,0.254 -7.16,0.254 4.08,0 6.147,0.399 7.16,0.253 -0.819,0.613 -1.999,2.357 -4.883,5.242 2.885,-2.885 4.629,-4.064 5.242,-4.883 -0.145,1.013 0.254,3.08 0.254,7.16 0,-4.079 0.399,-6.147 0.254,-7.16 0.614,0.819 2.358,1.999 5.242,4.883 -2.885,-2.885 -4.065,-4.629 -4.884,-5.242 1.012,0.146 3.079,-0.253 7.159,-0.253 z m -7.772,0 z m 0,0 z m 0,0 z m 8.91,-12.535 -2.093,2.093 0.766,2.858 2.859,0.767 2.093,-2.093 -0.766,-2.859 z m -19.364,19.364 -2.093,2.093 0.766,2.859 2.859,0.766 2.093,-2.093 -0.767,-2.859 z M 34.352,42.112 c 4.08,0 6.147,0.399 7.16,0.254 -0.819,0.613 -1.999,2.357 -4.883,5.242 2.885,-2.885 4.629,-4.064 5.242,-4.883 -0.145,1.013 0.254,3.08 0.254,7.16 0,-4.08 0.399,-6.147 0.254,-7.16 0.613,0.819 2.357,1.999 5.242,4.883 -2.885,-2.885 -4.065,-4.629 -4.884,-5.242 1.013,0.145 3.08,-0.254 7.16,-0.254 -4.08,0 -6.147,-0.399 -7.16,-0.253 0.819,-0.613 1.999,-2.357 4.884,-5.242 -2.885,2.885 -4.629,4.064 -5.242,4.883 0.145,-1.013 -0.254,-3.08 -0.253,-7.16 0,4.08 -0.399,6.147 -0.254,7.16 -0.613,-0.819 -2.357,-1.999 -5.242,-4.883 2.885,2.885 4.064,4.629 4.883,5.242 -1.014,-0.146 -3.081,0.253 -7.161,0.253 z m 16.682,-12.535 -2.093,2.093 0.766,2.859 2.859,0.766 2.093,-2.093 -0.766,-2.859 z m -17.832,25.082 2.093,-2.093 -0.766,-2.859 -2.859,-0.766 -2.093,2.093 0.766,2.859 z m 136.23,-37.496 c -0.522,0.88 -0.944,2.943 -2.505,6.712 1.561,-3.769 2.721,-5.527 2.974,-6.518 0.253,0.991 1.413,2.748 2.975,6.518 -1.561,-3.769 -1.984,-5.831 -2.506,-6.712 0.88,0.522 2.943,0.944 6.712,2.505 -3.769,-1.561 -5.526,-2.721 -6.518,-2.974 0.992,-0.253 2.749,-1.413 6.518,-2.974 -3.769,1.561 -5.832,1.984 -6.712,2.506 0.522,-0.88 0.944,-2.943 2.505,-6.712 -1.561,3.769 -2.721,5.526 -2.974,6.518 -0.253,-0.992 -1.413,-2.749 -2.975,-6.518 1.561,3.769 1.984,5.832 2.506,6.712 -0.88,-0.522 -2.943,-0.945 -6.712,-2.506 3.769,1.561 5.526,2.721 6.518,2.974 -0.992,0.253 -2.749,1.413 -6.518,2.974 3.77,-1.561 5.832,-1.983 6.712,-2.505 z m -11.787,-2.771 2.348,-1.802 -0.386,-2.934 -2.735,-1.133 -2.348,1.802 0.386,2.935 z m 25.301,10.48 2.348,-1.802 -0.386,-2.935 -2.735,-1.132 -2.348,1.802 0.386,2.934 z M 80.625,232.903 c 0.522,-0.88 0.944,-2.943 2.505,-6.712 -1.561,3.769 -2.721,5.526 -2.974,6.518 -0.253,-0.991 -1.413,-2.749 -2.975,-6.518 1.561,3.769 1.984,5.832 2.506,6.712 -0.88,-0.522 -2.943,-0.944 -6.712,-2.506 3.769,1.561 5.526,2.721 6.518,2.974 -0.992,0.253 -2.749,1.413 -6.518,2.974 3.769,-1.561 5.832,-1.984 6.712,-2.506 -0.522,0.88 -0.944,2.943 -2.505,6.712 1.561,-3.769 2.721,-5.527 2.974,-6.518 0.253,0.992 1.413,2.749 2.975,6.518 -1.561,-3.769 -1.984,-5.831 -2.506,-6.712 0.88,0.522 2.943,0.944 6.712,2.506 -3.769,-1.561 -5.526,-2.721 -6.518,-2.974 0.991,-0.253 2.748,-1.413 6.518,-2.974 -3.769,1.562 -5.832,1.985 -6.712,2.506 z m -0.469,0.469 z m 0,0 z m 0,0 z m 0,0 z m -13.029,-8.171 -2.348,1.802 0.386,2.935 2.735,1.132 2.348,-1.802 -0.386,-2.934 z m 25.301,10.48 -2.348,1.802 0.386,2.934 2.735,1.132 2.348,-1.801 -0.387,-2.935 z m 141.614,-65.78 c 0.991,-0.253 2.749,-1.413 6.518,-2.975 -3.769,1.561 -5.831,1.984 -6.712,2.506 0.522,-0.88 0.945,-2.943 2.506,-6.712 -1.561,3.769 -2.721,5.526 -2.974,6.518 -0.253,-0.991 -1.413,-2.749 -2.974,-6.518 1.561,3.769 1.984,5.832 2.505,6.712 -0.88,-0.522 -2.943,-0.944 -6.712,-2.505 3.769,1.561 5.526,2.721 6.518,2.974 -0.992,0.253 -2.748,1.413 -6.518,2.975 3.769,-1.561 5.832,-1.984 6.712,-2.506 -0.522,0.88 -0.944,2.943 -2.506,6.712 1.561,-3.769 2.721,-5.526 2.974,-6.518 0.253,0.991 1.413,2.749 2.974,6.518 -1.561,-3.769 -1.984,-5.832 -2.506,-6.712 0.88,0.522 2.943,0.944 6.712,2.505 -3.769,-1.561 -5.526,-2.721 -6.517,-2.974 z m 2.771,-14.991 -1.132,2.735 1.801,2.348 2.935,-0.386 1.133,-2.735 -1.802,-2.348 z m -10.479,25.301 -1.133,2.735 1.802,2.348 2.935,-0.386 1.132,-2.735 -1.802,-2.348 z M 16.038,80.156 c -0.991,0.253 -2.749,1.413 -6.517,2.975 3.769,-1.561 5.832,-1.984 6.712,-2.506 -0.522,0.88 -0.944,2.943 -2.506,6.712 1.561,-3.769 2.721,-5.526 2.974,-6.518 0.253,0.991 1.413,2.748 2.974,6.518 -1.561,-3.769 -1.984,-5.832 -2.506,-6.712 0.88,0.522 2.943,0.944 6.712,2.505 -3.769,-1.561 -5.527,-2.721 -6.518,-2.974 0.991,-0.253 2.749,-1.413 6.518,-2.975 -3.769,1.561 -5.832,1.984 -6.712,2.506 0.522,-0.88 0.944,-2.943 2.506,-6.712 -1.561,3.769 -2.721,5.526 -2.974,6.518 -0.253,-0.991 -1.413,-2.749 -2.974,-6.518 1.561,3.769 1.984,5.832 2.506,6.712 -0.88,-0.522 -2.943,-0.944 -6.712,-2.505 3.768,1.561 5.525,2.721 6.517,2.974 z m 7.701,-10.295 1.133,-2.734 -1.802,-2.348 -2.935,0.386 -1.132,2.735 1.801,2.348 z M 13.26,95.162 14.392,92.428 12.59,90.08 9.656,90.466 8.523,93.201 10.325,95.549 Z M 233.37,79.488 c -0.253,-0.992 -1.413,-2.749 -2.974,-6.518 1.561,3.769 1.984,5.832 2.505,6.712 -0.88,-0.522 -2.943,-0.944 -6.712,-2.506 3.769,1.561 5.526,2.721 6.518,2.974 -0.992,0.253 -2.749,1.413 -6.518,2.975 3.769,-1.561 5.832,-1.984 6.712,-2.506 -0.522,0.88 -0.944,2.943 -2.505,6.712 1.561,-3.769 2.721,-5.526 2.974,-6.518 0.253,0.991 1.413,2.749 2.974,6.518 -1.561,-3.769 -1.984,-5.832 -2.506,-6.712 0.88,0.522 2.943,0.944 6.712,2.506 -3.769,-1.561 -5.526,-2.721 -6.518,-2.974 0.991,-0.253 2.749,-1.413 6.518,-2.975 -3.769,1.561 -5.832,1.984 -6.712,2.506 0.522,-0.88 0.944,-2.943 2.505,-6.712 -1.56,3.769 -2.72,5.527 -2.973,6.518 z m 0,0.663 z m 0,0 z m 0,0 z m 0,0 z m -4.104,-9.908 1.801,-2.348 -1.132,-2.735 -2.935,-0.386 -1.801,2.348 1.132,2.735 z m 8.215,19.832 -1.802,2.348 1.133,2.734 2.934,0.387 1.802,-2.349 -1.133,-2.734 z M 16.696,170.569 c 0.253,0.992 1.413,2.749 2.974,6.518 -1.561,-3.769 -1.984,-5.832 -2.506,-6.712 0.88,0.522 2.943,0.944 6.712,2.506 -3.769,-1.561 -5.526,-2.721 -6.518,-2.974 0.992,-0.253 2.749,-1.413 6.517,-2.975 -3.769,1.561 -5.831,1.984 -6.712,2.506 0.522,-0.88 0.944,-2.943 2.505,-6.712 -1.561,3.769 -2.721,5.527 -2.974,6.518 -0.253,-0.991 -1.413,-2.749 -2.974,-6.518 1.561,3.769 1.983,5.832 2.505,6.712 -0.88,-0.522 -2.943,-0.944 -6.712,-2.506 3.769,1.561 5.527,2.721 6.518,2.974 -0.991,0.253 -2.748,1.413 -6.518,2.975 3.769,-1.561 5.832,-1.984 6.712,-2.506 -0.522,0.88 -0.944,2.943 -2.505,6.712 1.563,-3.769 2.723,-5.527 2.976,-6.518 z m -4.104,-10.571 1.802,-2.348 -1.133,-2.734 -2.934,-0.387 -1.802,2.349 1.133,2.734 z m 8.215,19.832 -1.802,2.348 1.133,2.734 2.934,0.387 1.802,-2.349 -1.133,-2.734 z m 149.778,53.54 c 0.992,-0.253 2.749,-1.413 6.518,-2.974 -3.769,1.561 -5.832,1.984 -6.712,2.505 0.522,-0.88 0.944,-2.943 2.506,-6.712 -1.561,3.769 -2.721,5.527 -2.975,6.518 -0.253,-0.991 -1.413,-2.749 -2.975,-6.518 1.562,3.769 1.984,5.832 2.506,6.712 -0.88,-0.522 -2.943,-0.944 -6.712,-2.505 3.769,1.561 5.526,2.721 6.518,2.974 -0.991,0.253 -2.748,1.413 -6.517,2.974 3.769,-1.561 5.832,-1.984 6.712,-2.506 -0.522,0.88 -0.944,2.943 -2.506,6.712 1.561,-3.769 2.721,-5.526 2.974,-6.518 0.254,0.992 1.413,2.749 2.975,6.517 -1.561,-3.769 -1.984,-5.831 -2.506,-6.712 0.88,0.522 2.943,0.944 6.712,2.505 -3.77,-1.559 -5.527,-2.719 -6.518,-2.972 z m -0.663,0 z m 0,0 z m 0,0 z m 0,0 z m 10.294,-7.039 -0.386,2.935 2.348,1.802 2.734,-1.133 0.387,-2.935 -2.348,-1.801 z m -25.3,10.481 -0.387,2.934 2.349,1.802 2.734,-1.133 0.386,-2.934 -2.348,-1.802 z M 87.348,13.722 c -3.769,1.561 -5.832,1.984 -6.712,2.506 0.522,-0.88 0.944,-2.943 2.506,-6.712 -1.561,3.769 -2.721,5.526 -2.974,6.518 -0.253,-0.991 -1.413,-2.749 -2.975,-6.518 1.562,3.769 1.984,5.832 2.506,6.712 -0.88,-0.522 -2.943,-0.944 -6.712,-2.505 3.769,1.561 5.526,2.721 6.518,2.974 -0.991,0.253 -2.748,1.413 -6.518,2.974 3.769,-1.561 5.832,-1.984 6.712,-2.506 -0.522,0.88 -0.944,2.943 -2.506,6.712 1.561,-3.769 2.721,-5.526 2.974,-6.518 0.253,0.991 1.413,2.749 2.975,6.518 -1.561,-3.769 -1.984,-5.832 -2.506,-6.712 0.88,0.522 2.943,0.944 6.712,2.505 -3.769,-1.561 -5.527,-2.721 -6.518,-2.974 0.991,-0.253 2.748,-1.413 6.518,-2.974 z m -7.181,2.974 z m 0,0 z m 0,0 z m 0,0 z m 14.99,-3.435 0.386,-2.935 -2.348,-1.801 -2.734,1.133 -0.386,2.934 2.348,1.802 z m -25.3,10.48 0.386,-2.934 -2.348,-1.802 -2.734,1.133 -0.387,2.934 2.349,1.802 z"
       id="path1"
       style="fill:url(#linearGradient5)" />
  </g>
  <g
     id="SvgjsG9297"
     featurekey="symbolFeature-0"
     transform="matrix(0.69079556,0,0,0.69079556,14.650079,14.981223)"
     fill="url(#SvgjsLinearGradient9308)"
     style="display:inline;fill:url(#linearGradient10)">
    <g
       fill="url(#SvgjsLinearGradient9308)"
       fill-rule="evenodd"
       id="g3"
       style="fill:url(#linearGradient9)">
      <path
         d="m 54.353068,49.289422 c 3.021681,-3.112868 6.305478,-6.443009 9.878497,-10.007447 0.0051,-0.0051 0.01029,-0.01026 0.01544,-0.01541 3.63952,-3.63952 7.798972,2.599657 15.597944,-5.199315 C 85.701618,28.210589 95.702862,15.089755 95.962828,14.82979 96.222794,14.569824 95.832845,14.179875 95.57288,14.439841 95.312914,14.699807 80.364885,29.38787 79.844953,29.907802 79.325022,30.427733 78.545124,30.167767 78.155176,29.777819 78.285159,29.907802 77.76986,29.392503 77.89521,29.517853 77.509895,29.132538 77.245296,28.348007 77.765227,27.828076 78.285159,27.308144 92.973222,11.320252 93.233188,11.060287 93.493154,10.800321 92.973222,10.280389 92.713256,10.540355 92.453291,10.800321 76.465399,26.008316 75.945467,26.528247 75.425536,27.048179 74.671026,26.8136 74.25569,26.398264 74.41106,26.553635 73.881926,26.0245 73.995724,26.138299 73.62196,25.764534 73.34581,24.968453 73.865741,24.448521 74.385673,23.92859 89.593668,7.9406978 89.853633,7.680732 90.113599,7.4207663 89.593668,6.9008348 89.333702,7.1608006 89.073736,7.4207663 73.085844,22.10883 72.565913,22.628761 72.045981,23.148693 71.278524,22.901167 70.876135,22.498778 71.018558,22.641201 70.486187,22.10883 70.61617,22.238813 70.226221,21.848864 69.966255,21.068967 70.486187,20.549036 71.006118,20.029104 85.694182,5.0810747 85.954148,4.821109 86.214113,4.5611433 85.763426,4.2319338 85.564199,4.4311604 85.364972,4.6303871 74.125707,12.750064 66.326735,20.549036 c -7.798972,7.798971 -1.559794,11.958423 -5.199314,15.597943 -0.0052,0.0051 -0.01028,0.0103 -0.01541,0.01544 -3.607546,3.616231 -6.975094,6.936201 -10.120291,9.988013 1.147702,1.080909 2.267908,2.126777 3.361345,3.138986 z M 49.110059,54.74706 C 24.144935,81.020644 19.990438,89.762317 15.501551,94.251203 13.994504,95.758251 11.015623,95.428477 7.0545491,93.339439 4.9655112,89.378366 4.6357375,86.399485 6.1427852,84.892437 10.638579,80.396644 19.400256,76.236269 45.768335,51.16854 c 1.15312,1.22374 2.266473,2.416287 3.341724,3.57852 z"
         id="path2"
         style="fill:url(#linearGradient7)" />
      <path
         d="m 41.162759,38.167009 c 36.956982,36.833276 47.808499,41.570176 52.991134,46.752811 1.507047,1.507047 1.177274,4.485928 -0.911764,8.447002 -3.961074,2.089038 -6.939955,2.418812 -8.447003,0.911764 C 79.948662,89.432121 75.491981,79.628341 44.813706,48.15523 41.232715,45.798291 36.447124,53.381197 29.034066,45.968139 21.235094,38.169167 1.0640916,12.869981 5.4720186,8.4620541 7.7586253,6.1754475 9.0470875,6.0496962 21.492691,18.495299 c 7.549477,7.549478 14.532129,14.533048 19.670068,19.67171 z"
         id="path3"
         style="fill:url(#linearGradient8)" />
    </g>
  </g>
</svg>
